<svg xmlns="http://www.w3.org/2000/svg" viewBox="0 0 1000 1000">
  <style>
    .t {
      fill: #4a4b4c;
    }

    @media (prefers-color-scheme: dark) {
      .t {
        fill: #f1f1f1;
      }
    }
  </style>

  <path class="t"
    d="M703.0641,380.34932a14.24525,14.24525,0,1,1,10.11621,4.21582A13.79615,13.79615,0,0,1,703.0641,380.34932Zm-227.228,147.43255c-14.99414-36.095-30.27221-71.431-42.115-108.53527a64.847,64.847,0,0,1-26.00293,0c18.762,44.08184,38.60376,89.96716,56.46094,134.47967a570.39436,570.39436,0,0,1-37.6543,73.62256,33.183,33.183,0,0,1,19.1084,0c8.155-24.20251,20.116-51.48767,31.07276-76.86469l.01635-.00427c19.92261-43.42279,39.36744-88.44983,59.88208-131.23327a32.71163,32.71163,0,0,1-18.65527,0c-8.66528,27.6463-19.08862,56.11456-30.49023,82.816Q481.77126,515.34712,475.83607,527.78187ZM312.18251,553.5013c-1.96143-16.5185-2.208-32.11567-2.26148-48.89771V487.645q0-3.38946,2.82642-3.39135c5.02026,1.37976,10.92407,10.98034,16.39453,16.39288,14.1792,16.37836,30.5166,36.76343,44.65527,52.8548a169.82975,169.82975,0,0,1,30.52588,0c-23.47583-24.94025-46.43945-51.22-68.11572-77.44361,20.44385-20.10943,42.18628-38.24579,65.00781-56.81109-9.22631,1.16571-15.87353,2.41424-24.873,0a597.1228,597.1228,0,0,1-43.38648,45.222,119.89319,119.89319,0,0,1-14.697,12.154,8.56313,8.56313,0,0,1-4.94629,1.97815q-3.3922,0-3.39136-5.3695c-1.08862-32.984-1.77685-69.32184.83081-102.35443,0,0,46.34278-44.61866,40.32862-61.566-2.30469-6.49421-2.3794-20.16358-1.59815-36.85523,9.16895-2.1488,34.38062-7.35962,46.67017-2.92017,15.18457,5.48523,50.92261,3.81366,67.44141-1.97381,16.519-5.78742,38.14672-39.59241,38.14672-39.59241s-30.91284,20.23676-42.90234,28.18714c-11.98926,7.95037-70.75244,3.20416-89.5127-4.39368-8.44238-3.419-14.50683-2.1908-18.63134.19006,1.51465-22.51,3.51635-47.14367,3.49853-66.32825,14.11182-26.88165-13.84521-86.70294-50.64892-115.61108,38.11328,46.01709,50.37378,113.04291,40.89184,116.87494S335.724,286.14,337.14613,294.43989c1.42236,8.29993-15.91089,51.05262-32.85718,61.35895-15.78759,9.60175-14.28906,47.10388-14.39672,47.01813-1.12171,27.22321-.10376,113.43732-3.14759,150.68433A143.25228,143.25228,0,0,1,312.18251,553.5013Zm277.6394-4.27015q-10.95849-7.021-17.42187-20.51367h-.56153c-.01782,10.43219-.01928,22.67853.14063,33.34052.0918,7.39844-1.46753,24.60779-2.51929,31.95-1.22461,8.54761-4.95019,28.65-13.05,43.95-15.00293,28.33893-39.98144,47.03668-63.57055,60.381-16.78662,9.496-34.77539,13.11652-53.92774,12.34949-43.9768-2.88507-82.85547-26.0741-119.10669-49.19311-5.55151-3.53736-11.4292-6.56653-17.188-9.77356-4.69677-2.61548-9.54467-2.8523-14.71093-1.26758-12.99732,3.98718-24.33423,11.05932-35.50635,18.52093-12.23145,8.16931-24.3916,16.46472-36.91089,24.17188-8.17566,3.45013-16.03259,6.3847-18.98218,1.38342-.19238-.42871,1.21326-2.00507,2.17054-2.45514,15.39636-7.2384,30.55566-15.01611,43.96081-25.51648,14.19177-10.75012,26.03919-24.59082,40.88879-34.50793,7.41517-4.56061,15.181-4.90253,22.72474-.30591,8.77221,5.34521,17.32959,11.04187,26.063,16.4519,21.73243,13.46228,44.05567,25.77234,68.636,33.32367,48.17236,16.07074,96.04419,2.78064,128.30957-34.11267,14.88648-16.09131,19.90015-31.07684,21.03858-51.45715,1.10546-28.33411.52954-66.48261.74633-95.05158-.0874-26.012-.48047-56.09863-2.24829-81.77154a57.57544,57.57544,0,0,0,25.29,0,177.485,177.485,0,0,0-2.248,27.53808H572.4c5.45459-11.89856,15.65747-22.43249,28.80249-27.25677,18.92676-7.01434,43.96484-2.08063,58.16723,13.48822,12.68311,13.79968,17.91773,31.89606,17.84278,52.547.1355,21.06665-6.0232,39.21747-19.24829,53.24878C641.2953,556.74214,609.98964,562.01253,589.82191,549.23115ZM648.9723,457.3434c-4.06811-12.448-10.19018-22.35-21.49585-26.69422-17.96972-6.36639-36.29052-.80786-46.08422,15.03315-7.4524,11.79986-9.45459,27.196-9.554,41.72888.3208,31.92193,8.7439,57.89892,41.02539,58.44769,21.27734.42413,33.27832-17.57977,37.23267-36.952C653.51039,493.921,653.36464,470.5724,648.9723,457.3434Zm76.85352-38.21576a57.57544,57.57544,0,0,1-25.29,0c1.94165,16.1065,2.19824,36.20184,2.248,52.54693-.13867,25.61951.69116,56.4845-2.248,81.77143a57.57619,57.57619,0,0,1,25.29,0c-1.94824-16.10156-2.19605-36.20349-2.24805-52.54688.02759-16.39221-.16357-39.24987.4209-55.77929Q724.42055,431.21114,725.82582,419.12764ZM341.3827,910.51344a19.22484,19.22484,0,0,1,.74024,5.54,14.87888,14.87888,0,0,1-1.37988,6.74024,13.05914,13.05914,0,0,1-3.52051,4.43945,13.49776,13.49776,0,0,1-4.71973,2.44043,17.877,17.877,0,0,1-4.94043.74023q-1.35937,0-2.67969-.10058-1.31982-.09961-2.67968-.09961-1.35937,0-2.67969.05957-1.32129.06006-2.67969.14062.11865-2.6001.21875-5.18066.09962-2.5796.10059-5.17969V913.1736q0-2.6001-.10059-5.17969-.0996-2.58105-.21875-5.18066,1.51758.08056,3.01953.14062,1.5.06006,3.01953.05957,1.52052,0,3.01954-.09961,1.5-.0996,3.0205-.10058a17.5101,17.5101,0,0,1,6.02051.91992,10.51467,10.51467,0,0,1,4.09961,2.62012A10.30263,10.30263,0,0,1,341.3827,910.51344Zm-3.17968,5.54a16.17434,16.17434,0,0,0-.85938-5.71973,8.71393,8.71393,0,0,0-2.36133-3.54,8.34924,8.34924,0,0,0-3.59961-1.79981,19.59565,19.59565,0,0,0-4.53906-.5q-1.80176,0-3.36133.12012-1.55859.12012-2.79882.27929-.12012,1.92042-.18067,4.02051-.06006,2.09913-.05957,4.25977v6.87988q0,4.36084.24024,8.48047a14.58612,14.58612,0,0,0,2.27929.2998q1.43994.09962,2.96.09961a19.08476,19.08476,0,0,0,4.40039-.51953,9.55028,9.55028,0,0,0,3.94043-1.96,10.49109,10.49109,0,0,0,2.83985-3.94043A16.18318,16.18318,0,0,0,338.203,916.05348Zm24.09961-.16016a9.82078,9.82078,0,0,1,.5,3.16016c0,.2666-.00684.52734-.01954.78027q-.0205.38087-.06054.78028-2.15919-.03955-4.28028-.08008-2.11962-.03956-4.28027-.04c-.87891,0-1.75391.01367-2.61914.04q-1.30079.03956-2.62109.08008a4.74837,4.74837,0,0,0-.03907.58008v.53906a9.03315,9.03315,0,0,0,.46,2.9209,6.62013,6.62013,0,0,0,1.33985,2.33984,6.40207,6.40207,0,0,0,2.16015,1.55957,7.10266,7.10266,0,0,0,2.96.58008,6.4621,6.4621,0,0,0,1.63964-.21973,9.26557,9.26557,0,0,0,1.63965-.60058,8.92193,8.92193,0,0,0,1.5-.89942,7.63492,7.63492,0,0,0,1.22071-1.12011l.19921.12011-.23925,1.96a12.21865,12.21865,0,0,1-3,1.7002,9.60037,9.60037,0,0,1-3.68067.73926,10.40215,10.40215,0,0,1-3.93945-.71973,9.458,9.458,0,0,1-3.08008-1.97949,8.63508,8.63508,0,0,1-2-2.98047,9.7668,9.7668,0,0,1-.69922-3.71973,11.62546,11.62546,0,0,1,2.35938-7.70019,8.36744,8.36744,0,0,1,6.7998-2.82032,9.29475,9.29475,0,0,1,3.63965.66016,7.61132,7.61132,0,0,1,2.60059,1.75977A6.97022,6.97022,0,0,1,362.30263,915.89332Zm-2.78028,3.2002a15.38928,15.38928,0,0,0-.17969-2.28027,7.13121,7.13121,0,0,0-.71972-2.23926,4.792,4.792,0,0,0-1.5-1.7207,4.27306,4.27306,0,0,0-2.52051-.67969,4.40784,4.40784,0,0,0-2.5.67969,5.85657,5.85657,0,0,0-1.68066,1.70019,8.10465,8.10465,0,0,0-1,2.24024,11.90186,11.90186,0,0,0-.41993,2.2998q1.23927.041,2.58008.08008,1.34034.041,2.6211.04,1.31835,0,2.67968-.04Q358.24208,919.134,359.52235,919.09352Zm11.65918-10.39941q.02051-1.59961.06055-3.16016.03955-1.56006.09961-2.98047.06151-1.41944.14062-2.41992a8.19065,8.19065,0,0,1-3.59961,0q.07911,1.00049.13965,2.41992.06006,1.4209.10059,2.98047.03808,1.56006.05859,3.16016.02051,1.5996.02051,2.96v7.23925q0,1.4004-.02051,2.98047-.02051,1.58057-.05859,3.13965-.041,1.56006-.10059,2.98047-.06006,1.41943-.13965,2.41992a8.19065,8.19065,0,0,1,3.59961,0q-.08056-.999-.14062-2.41992-.05859-1.41943-.09961-2.98047-.041-1.56006-.06055-3.13965-.02051-1.58057-.01953-2.98047v-7.23925Q371.162,910.2947,371.18153,908.69411Zm9.82031-6.40039a2.0489,2.0489,0,1,0,1.43946.5996A1.96278,1.96278,0,0,0,381.00184,902.29372Zm1.54,12.70019q.06006-1.98047.25977-3.70019a8.19506,8.19506,0,0,1-3.60059,0q.20069,1.71972.26075,3.70019.06,1.979.05957,3.7793v4.16015q0,1.8003-.05957,3.78028-.06006,1.98046-.26075,3.70019a8.19506,8.19506,0,0,1,3.60059,0q-.20068-1.71972-.25977-3.70019-.06006-1.98048-.05957-3.78028v-4.16015Q382.48231,916.97438,382.54188,914.99391Zm22.71973,15.96a5.02685,5.02685,0,0,1,.38086,1.97949,8.04175,8.04175,0,0,1-.541,2.83985,7.38222,7.38222,0,0,1-1.67968,2.60058,8.93184,8.93184,0,0,1-2.93946,1.91993,11.09713,11.09713,0,0,1-4.32031.75976,10.66116,10.66116,0,0,1-6.12012-1.54,4.8551,4.8551,0,0,1-2.23925-4.21972,4.74523,4.74523,0,0,1,.3789-1.94043,5.60824,5.60824,0,0,1,.98047-1.51954,6.10381,6.10381,0,0,1,1.35938-1.12011,6.777,6.777,0,0,1,1.56054-.7002v-.08008a3.49486,3.49486,0,0,1-1.87988-1.20019,3.20071,3.20071,0,0,1-.63965-2,2.94329,2.94329,0,0,1,.25977-1.21973,3.82362,3.82362,0,0,1,.66015-1.01953,3.43209,3.43209,0,0,1,.91993-.7207,3.27324,3.27324,0,0,1,1-.35938v-.08008a6.73489,6.73489,0,0,1-2.88086-2.25976,6.1514,6.1514,0,0,1-1.03907-3.66016,6.50371,6.50371,0,0,1,.59961-2.90039,5.57722,5.57722,0,0,1,1.66016-2.01953,7.44432,7.44432,0,0,1,2.43945-1.20019,10.51769,10.51769,0,0,1,2.94043-.4004q.76026,0,1.46.04.7002.041,1.7793.12012.91992.08056,1.64062.12012c.48047.02734.86622.04,1.16016.04a17.20332,17.20332,0,0,0,3.24024-.2002,3.94615,3.94615,0,0,0-.06055.41992c-.01367.14746-.01953.28711-.01953.41993,0,.13378.00586.27441.01953.41992a3.89319,3.89319,0,0,0,.06055.4209q-1.16016-.08058-2.25977-.18067-1.10157-.0996-2.18066-.13965l-.08008.08008a5.00081,5.00081,0,0,1,2,2.09961,6.15505,6.15505,0,0,1,.76074,2.94043,5.81314,5.81314,0,0,1-2.02051,4.7002,8.14675,8.14675,0,0,1-5.41992,1.69921c-.374,0-.74023-.01269-1.10059-.04-.35937-.02637-.72656-.04-1.09961-.04a2.04477,2.04477,0,0,0-1.33984.5205,1.64711,1.64711,0,0,0-.62012,1.32032,2.02655,2.02655,0,0,0,.5,1.51953,2.833,2.833,0,0,0,1.86036.52051q1.11913.03954,2.19921.05957c.72071.01367,1.45313.03418,2.20118.05957a11.6579,11.6579,0,0,1,3.13867.44043,5.90709,5.90709,0,0,1,2.12109,1.09961A4.3038,4.3038,0,0,1,405.26161,930.95387ZM392.702,921.37379a4.25357,4.25357,0,0,0,6.75977-.21972,5.53634,5.53634,0,0,0,.7998-1.80078,8.60208,8.60208,0,0,0,.25977-2.13965,5.5407,5.5407,0,0,0-1.19922-3.82032,4.042,4.042,0,0,0-3.16016-1.33984,4.10707,4.10707,0,0,0-3.35937,1.46,5.95131,5.95131,0,0,0-1.20118,3.90039A6.48689,6.48689,0,0,0,392.702,921.37379Zm9.97949,13.28028a3.93,3.93,0,0,0-1.41992-3.40039,7.95921,7.95921,0,0,0-4.61914-1.04,8.68979,8.68979,0,0,0-4.62109,1.04,3.91,3.91,0,0,0-1.66016,3.59961,5.33391,5.33391,0,0,0,.46094,2.32031,4.23379,4.23379,0,0,0,1.24023,1.55957,5.12072,5.12072,0,0,0,1.85938.88086,9.27524,9.27524,0,0,0,2.32031.27929,8.84909,8.84909,0,0,0,2.35937-.31933,6.53429,6.53429,0,0,0,2.06055-.96,5.03587,5.03587,0,0,0,1.46-1.62012A4.6464,4.6464,0,0,0,402.68153,934.65407Zm20.71973-22.34082a5.429,5.429,0,0,0-2.05957-1.09961,8.351,8.351,0,0,0-2.25977-.32032,7.08168,7.08168,0,0,0-3.7207.94043,8.3636,8.3636,0,0,0-2.67969,2.66016h-.08008v-3.04q0-1.31982.01954-2.86035.0205-1.53956.06054-3.09961.03956-1.56006.09961-2.96c.041-.93359.08594-1.7334.14063-2.40039a8.19065,8.19065,0,0,1-3.59961,0q.07909,1.00049.13867,2.41992.06152,1.4209.10058,2.98047.03955,1.56006.05958,3.16016.0205,1.5996.0205,2.96v7.23925q0,1.4004-.0205,2.98047-.02052,1.58057-.05958,3.13965-.03954,1.56006-.10058,2.98047-.05859,1.41943-.13867,2.41992a8.19065,8.19065,0,0,1,3.59961,0c-.05469-.666-.09961-1.46679-.14063-2.40039q-.05859-1.39893-.09961-2.89941-.041-1.5-.06054-2.96-.02052-1.46046-.01954-2.62012a7.887,7.887,0,0,1,1.29981-4.83984,4.8078,4.8078,0,0,1,4.10058-1.72071,3.7816,3.7816,0,0,1,3.17969,1.56055,7.3987,7.3987,0,0,1,1.17969,4.51953v2.44043q0,2.32032-.09961,4.51953-.09962,2.2002-.17969,4.40039.43945-.08056.81934-.14062a5.2572,5.2572,0,0,1,.82031-.05957,5.65759,5.65759,0,0,1,.83984.05957c.26661.04.5459.08691.83985.14062q-.08056-1.28026-.0791-2.56054v-2.59961q0-2.04054.0791-3.86036.08057-1.81934.08008-3.54a8.66857,8.66857,0,0,0-.58008-3.41993A5.6842,5.6842,0,0,0,423.40126,912.31325Zm15,17.2207a2.85671,2.85671,0,0,1-1.84082-.52051,3.13834,3.13834,0,0,1-.959-1.37988,6.60806,6.60806,0,0,1-.38086-1.93945q-.05859-1.08107-.05957-2.2002,0-1.31982.04-3,.03956-1.68018.08008-3.2207.03956-1.53808.08008-2.65918a11.52777,11.52777,0,0,1,.08008-1.28028h1.96q1.23926,0,2.28027.08008a2.09082,2.09082,0,0,1-.041-.41992v-.83984a2.10057,2.10057,0,0,1,.041-.4209q-1.40038.082-2.60058.10058-1.19971.02052-1.63965.01954.06885-1.4795.12207-2.93946.05272-1.46044.15722-2.98047h-.19726l-3.28223,1.40039q.08056,1.28028.10059,2.4795.019,1.20117.05957,2-.83935,0-2.63965-.11914c.02539.13281.0459.2666.05957.39941.0127.13379.02051.2666.02051.40039,0,.16016-.00781.31348-.02051.46-.01367.14649-.03418.29981-.05957.46q.7998-.08056,1.459-.08008h1.26075q0,2.23975-.05957,4.05957-.06153,1.8208-.10059,3.32032-.03956,1.5-.08008,2.75976-.03954,1.25978-.04,2.33985a5.27309,5.27309,0,0,0,1.2002,3.68066,4.78906,4.78906,0,0,0,3.71973,1.31934,7.36505,7.36505,0,0,0,1.58007-.17969,12.66543,12.66543,0,0,0,1.5-.41992v-.96a6.79488,6.79488,0,0,1-.93945.20019A6.15028,6.15028,0,0,1,438.40126,929.534Zm10.73926-28.96a7.10572,7.10572,0,0,0-1.82032,1.2793,8.53007,8.53007,0,0,0-1.43945,1.98046,16.70443,16.70443,0,0,0-1.09961,2.5,17.15405,17.15405,0,0,0-.70117,2.67969,14.56159,14.56159,0,0,0-.24023,2.52051q-.67969,0-1.41993-.02051-.73974-.019-1.459-.01953c.02539.13379.0459.2666.05957.39941.01269.13379.02051.26758.02051.4004,0,.13378-.00782.2666-.02051.40039-.01367.13281-.03418.2666-.05957.39941q.71924-.03956,1.43945-.08008.7207-.03955,1.43946-.04,0,4.4004-.03907,8.7002-.041,4.30079-.32031,8.74023a9.078,9.078,0,0,1,1.75977-.20019,8.1071,8.1071,0,0,1,1.7207.20019q-.12012-4.43994-.14063-8.75976-.0205-4.32129-.01953-8.68067,1.04,0,2.05957.04,1.021.041,2.05957.08008a4.02592,4.02592,0,0,1-.05957-.39941,3.9204,3.9204,0,0,1,0-.80079c.0127-.13281.03321-.26562.05957-.39941q-1.04,0-2.05957.01953-1.01952.02051-2.05957.02051-.20069-1.23926-.33984-2.60059-.14062-1.35937-.14063-2.08007a6.37863,6.37863,0,0,1,.17969-1.5,3.53419,3.53419,0,0,1,.58008-1.2793,2.98592,2.98592,0,0,1,2.52051-1.2207,4.0641,4.0641,0,0,1,2.20019.60058l.24024-.12012q0-.7998.05957-1.60058.06006-.79835.10058-1.59961a2.52453,2.52453,0,0,0-.80078-.12012A4.92642,4.92642,0,0,0,449.14052,900.574Zm21.25976,10.71973c-.26758.05371-.53418.0996-.80078.13964a5.85471,5.85471,0,0,1-1.67969,0c-.2666-.04-.54687-.08593-.83984-.13964q.07909,1.43994.08008,3.17968v3.37989q0,2.36131-.01953,3.7207-.02052,1.35938-.10059,2.15918a5.57048,5.57048,0,0,1-.25977,1.30078c-.12011.333-.27441.71387-.46,1.13965a4.55165,4.55165,0,0,1-1.64062,1.82031,4.97276,4.97276,0,0,1-2.79883.73926,4.54961,4.54961,0,0,1-2.02051-.41992,4.15323,4.15323,0,0,1-2.2998-2.71973,10.75934,10.75934,0,0,1-.36035-3.17969q0-2.96044.10058-5.86035.09814-2.89893.29883-5.25976a7.788,7.788,0,0,1-1.63965.20019,7.92491,7.92491,0,0,1-1.67969-.20019q.03955,1.68016.05958,3.32031.0205,1.64063.0205,3.04,0,1.47948-.05957,2.97949-.06152,1.5-.06054,3.62012a6.42,6.42,0,0,0,1.77929,4.83984,7.456,7.456,0,0,0,8.46094.74023,7.41819,7.41819,0,0,0,2.67969-2.86035h.08008v1.7002q0,.86133-.08008,1.74023a6.17875,6.17875,0,0,1,3.12011,0q-.08057-1.68016-.12011-3.41992-.041-1.74024-.04-3.54,0-3.20069.04-6.12012Q470.19959,914.41433,470.40028,911.29372Zm10.41895-2.59961q.019-1.59961.05957-3.16016.041-1.56006.10058-2.98047.06006-1.41944.13965-2.41992a8.19065,8.19065,0,0,1-3.59961,0q.07911,1.00049.14063,2.41992.05859,1.4209.09961,2.98047.03809,1.56006.05957,3.16016.019,1.5996.02051,2.96v7.23925q0,1.4004-.02051,2.98047-.02051,1.58057-.05957,3.13965-.041,1.56006-.09961,2.98047-.06153,1.41943-.14063,2.41992a8.19065,8.19065,0,0,1,3.59961,0q-.07909-.999-.13965-2.41992-.06006-1.41943-.10058-2.98047-.03956-1.56006-.05957-3.13965-.02051-1.58057-.02051-2.98047v-7.23925Q480.79872,910.2947,480.81923,908.69411Zm39.13965,18.7998q.84081,1.83984,1.35937,2.91992-.55957-.08056-1.05957-.14062a9.46177,9.46177,0,0,0-2.12012,0q-.501.06006-1.05957.14062-.27978-1.04-.76074-2.33984-.479-1.29932-1.03906-2.7207-.561-1.41944-1.17969-2.87989-.62109-1.459-1.14062-2.77929-1.28028-.03956-2.59961-.06055-1.32129-.019-2.64063-.01953-1.23926,0-2.43945.01953-1.20117.02051-2.44043.06055-1.28028,3.11865-2.31934,5.96-1.0415,2.84033-1.56054,4.75976c-.26758-.05371-.51954-.10058-.75977-.14062a4.38357,4.38357,0,0,0-1.44043,0c-.23926.04-.49316.08691-.75977.14062q3.24024-7.07958,6.33985-14.04,3.0996-6.96093,6.18066-14.08007h.75977q.999,2.32031,2.11914,5,1.11913,2.68065,2.28125,5.46,1.15869,2.78026,2.29883,5.47949,1.13964,2.70117,2.14062,5.06055Q519.11806,925.65358,519.95888,927.49391Zm-7.56055-9.68066-4.43945-10.15918-4.35938,10.15918q1.03857,0,2.15918.04c.74707.02734,1.46582.04,2.16016.04q1.11914,0,2.24023-.01953Q511.27821,917.85329,512.39833,917.81325Zm29.91992-11.05957a8.56647,8.56647,0,0,1-.66016,7.09961,8.26823,8.26823,0,0,1-2.79882,2.56054,11.12546,11.12546,0,0,1-3.51953,1.24024,19.75883,19.75883,0,0,1-3.30079.31933q-.91992,0-1.67968-.01953-.76173-.02051-1.56055-.10058v2.20019q0,2.60157.09961,5.17969.09962,2.58105.2207,5.18066c-.34765-.05371-.67969-.10058-1-.14062a7.76457,7.76457,0,0,0-1.91992,0c-.32031.04-.6543.08691-1,.14062q.12012-2.6001.2207-5.18066.09669-2.5796.09961-5.17969V913.1736q0-2.6001-.09961-5.17969-.10254-2.58105-.2207-5.18066c.64063.05371,1.28516.10058,1.93945.14062s1.30078.05957,1.93946.05957q.48046,0,1.16015-.04.67969-.03954,1.38086-.05957c.4668-.01367.91211-.0332,1.33985-.06054.42578-.02637.78711-.04,1.08007-.04.40039,0,.89258.01367,1.48047.04a12.23015,12.23015,0,0,1,1.85938.24023,10.519,10.519,0,0,1,1.93945.60059,5.52279,5.52279,0,0,1,1.74024,1.15918A5.6882,5.6882,0,0,1,542.31825,906.75368Zm-3.19922,3.05957a6.94728,6.94728,0,0,0-.48047-2.79981,3.935,3.935,0,0,0-1.33984-1.67969,5.22532,5.22532,0,0,0-2.09961-.82031,16.14024,16.14024,0,0,0-2.80078-.21972h-3.59961V916.1736a10.21838,10.21838,0,0,0,1.40039.24023,13.66362,13.66362,0,0,0,1.43945.08008,12.3516,12.3516,0,0,0,2.56055-.28027,6.84972,6.84972,0,0,0,2.41992-1.01953,5.61314,5.61314,0,0,0,1.80078-2.04A7.03659,7.03659,0,0,0,539.119,909.81325Zm12.459-1.81934q.0996-2.58105.2207-5.18066c-.34766.05371-.67969.10058-1,.14062a7.76457,7.76457,0,0,1-1.91992,0c-.32031-.04-.6543-.08691-1-.14062q.12012,2.60156.2207,5.18066.09962,2.5796.09961,5.17969v6.87988q0,2.60157-.09961,5.17969-.10254,2.58105-.2207,5.18066c.3457-.05371.67969-.10058,1-.14062a7.76457,7.76457,0,0,1,1.91992,0c.32031.04.65234.08691,1,.14062q-.12012-2.6001-.2207-5.18066-.09961-2.5796-.09961-5.17969V913.1736Q551.47841,910.5735,551.578,907.99391Zm23.67968-1.12012a9.31832,9.31832,0,0,1,3.52149-2.33984,12.32249,12.32249,0,0,1,4.3789-.76074,8.758,8.758,0,0,1,2.6211.38086,10.55062,10.55062,0,0,1,2.17969.93945,11.38581,11.38581,0,0,1,1.66015,1.16016,13.55091,13.55091,0,0,1,1.13867,1.08007l.24024-.08007q.12012-.64014.32031-1.59961a5.28481,5.28481,0,0,1,.51953-1.52051,21.13014,21.13014,0,0,0-3.85937-1.29981,20.34785,20.34785,0,0,0-4.82032-.54,18.41372,18.41372,0,0,0-6.08007.96,13.267,13.267,0,0,0-4.74024,2.7998,12.67941,12.67941,0,0,0-3.08008,4.5,17.2486,17.2486,0,0,0,0,12.12012,12.64745,12.64745,0,0,0,7.66016,7.2998,17.1905,17.1905,0,0,0,5.83984.96,16.40025,16.40025,0,0,0,2.83985-.23925,17.24327,17.24327,0,0,0,2.4414-.60059,16.78872,16.78872,0,0,0,1.87891-.74023,5.13537,5.13537,0,0,0,1.16016-.69922l.36132-2.36035-.16015-.16016q-.5625.44091-1.38086,1.02051a13.36805,13.36805,0,0,1-1.83984,1.0791,14.21959,14.21959,0,0,1-2.24024.86035,9.35973,9.35973,0,0,1-2.66016.36035,12.32246,12.32246,0,0,1-4.3789-.75976,9.32071,9.32071,0,0,1-3.52149-2.34082,10.90468,10.90468,0,0,1-2.33984-4,20.03361,20.03361,0,0,1,0-11.4795A10.92069,10.92069,0,0,1,575.2577,906.87379Zm25.16016,1.82032q.0205-1.59961.06055-3.16016c.02539-1.04.06054-2.0332.09961-2.98047.041-.94629.08593-1.75293.14062-2.41992a8.19065,8.19065,0,0,1-3.59961,0q.07911,1.00049.13867,2.41992.06153,1.4209.09961,2.98047.041,1.56006.06055,3.16016.0205,1.5996.01953,2.96v7.23925q0,1.4004-.01953,2.98047-.02051,1.58057-.06055,3.13965-.03809,1.56006-.09961,2.98047-.05859,1.41943-.13867,2.41992a8.19065,8.19065,0,0,1,3.59961,0c-.05469-.666-.09961-1.47363-.14062-2.41992-.03907-.94629-.07422-1.94043-.09961-2.98047q-.041-1.56006-.06055-3.13965-.02051-1.58057-.01953-2.98047v-7.23925Q600.39833,910.2947,600.41786,908.69411Zm9.82031-6.40039a2.05059,2.05059,0,1,0,1.43946.5996A1.96434,1.96434,0,0,0,610.23817,902.29372Zm1.541,12.70019q.05859-1.98047.25976-3.70019a8.19065,8.19065,0,0,1-3.59961,0q.19923,1.71972.25977,3.70019.05859,1.979.05859,3.7793v4.16015q0,1.8003-.05859,3.78028-.06153,1.98046-.25977,3.70019a8.19065,8.19065,0,0,1,3.59961,0q-.20214-1.71972-.25976-3.70019-.06153-1.98048-.06055-3.78028v-4.16015Q611.71864,916.97438,611.77919,914.99391Zm22.1582.89941a9.79377,9.79377,0,0,1,.5,3.16016c0,.2666-.00586.52734-.01953.78027-.01367.25391-.0332.51368-.06055.78028q-2.15917-.03955-4.27929-.08008-2.12111-.03956-4.2793-.04-1.32129,0-2.62109.04-1.30079.03956-2.61914.08008a4.58787,4.58787,0,0,0-.041.58008v.53906a9.05969,9.05969,0,0,0,.46094,2.9209,6.64983,6.64983,0,0,0,1.33984,2.33984,6.40211,6.40211,0,0,0,2.16016,1.55957,7.10429,7.10429,0,0,0,2.959.58008,6.47535,6.47535,0,0,0,1.64063-.21973,9.24714,9.24714,0,0,0,1.64062-.60058,8.92273,8.92273,0,0,0,1.5-.89942,7.53616,7.53616,0,0,0,1.21875-1.12011l.20117.12011-.24023,1.96a12.25491,12.25491,0,0,1-3,1.7002,9.59919,9.59919,0,0,1-3.67969.73926,10.40215,10.40215,0,0,1-3.93945-.71973,9.4476,9.4476,0,0,1-3.08008-1.97949,8.60785,8.60785,0,0,1-2-2.98047,9.7677,9.7677,0,0,1-.70117-3.71973,11.63609,11.63609,0,0,1,2.35937-7.70019,8.37213,8.37213,0,0,1,6.80078-2.82032,9.3032,9.3032,0,0,1,3.64063.66016,7.61654,7.61654,0,0,1,2.59961,1.75977A6.929,6.929,0,0,1,633.93739,915.89332Zm-2.7793,3.2002a15.52263,15.52263,0,0,0-.17968-2.28027,7.10789,7.10789,0,0,0-.72071-2.23926,4.7734,4.7734,0,0,0-1.5-1.7207,4.26359,4.26359,0,0,0-2.51953-.67969,4.40784,4.40784,0,0,0-2.5.67969,5.84118,5.84118,0,0,0-1.67968,1.70019,8.10465,8.10465,0,0,0-1,2.24024,11.82774,11.82774,0,0,0-.41993,2.2998q1.23927.041,2.58008.08008,1.33887.041,2.61914.04,1.32129,0,2.67969-.04Q629.87685,919.134,631.15809,919.09352Zm20.959-6.78027a5.42509,5.42509,0,0,0-2.05859-1.09961,8.351,8.351,0,0,0-2.25977-.32032,7.07681,7.07681,0,0,0-3.7207.94043,8.34413,8.34413,0,0,0-2.67969,2.66016h-.08008q0-1.56006.11914-3.20019a8.55544,8.55544,0,0,1-1.59961.20019,9.25533,9.25533,0,0,1-1.80078-.20019q.20215,1.71972.26172,3.70019.05859,1.979.05859,3.7793v4.16015q0,1.8003-.05859,3.78028-.06153,1.98046-.26172,3.70019a8.19942,8.19942,0,0,1,3.60156,0q-.20214-1.71972-.25976-3.70019-.06153-1.98048-.06055-3.78028V919.534a7.8935,7.8935,0,0,1,1.29883-4.83984,4.811,4.811,0,0,1,4.10156-1.72071,3.78284,3.78284,0,0,1,3.17969,1.56055,7.40526,7.40526,0,0,1,1.17969,4.51953v2.44043q0,2.32032-.09961,4.51953-.10254,2.2002-.17969,4.40039c.293-.05371.56445-.10058.81836-.14062a5.27514,5.27514,0,0,1,.82031-.05957,5.64828,5.64828,0,0,1,.83985.05957c.26757.04.54687.08691.83984.14062q-.07911-1.28026-.08008-2.56054v-2.59961q0-2.04054.08008-3.86036.082-1.81934.08008-3.54a8.66857,8.66857,0,0,0-.58008-3.41993A5.6842,5.6842,0,0,0,652.11708,912.31325Zm14.43945,17.2207a2.85373,2.85373,0,0,1-1.83984-.52051,3.13834,3.13834,0,0,1-.959-1.37988,6.51459,6.51459,0,0,1-.38086-1.93945c-.03906-.72071-.06054-1.45313-.06054-2.2002q0-1.31982.041-3,.03809-1.68018.08008-3.2207.03808-1.53808.08008-2.65918a11.25981,11.25981,0,0,1,.08008-1.28028h1.959q1.23926,0,2.28125.08008a2.09082,2.09082,0,0,1-.041-.41992v-.83984a2.10057,2.10057,0,0,1,.041-.4209c-.93554.05469-1.80078.08691-2.60156.10058q-1.19824.02052-1.63867.01954.06738-1.4795.12109-2.93946.05274-1.46044.1582-2.98047h-.19726l-3.2832,1.40039q.07909,1.28028.09961,2.4795.02051,1.20117.06054,2-.84081,0-2.64062-.11914a4.02729,4.02729,0,0,1,.06054.39941,3.92276,3.92276,0,0,1,.01954.40039c0,.16016-.00586.31348-.01954.46s-.0332.29981-.06054.46c.5332-.05371,1.02148-.08008,1.46093-.08008h1.25977q0,2.23975-.06055,4.05957-.05859,1.8208-.09961,3.32032-.041,1.5-.08007,2.75976-.041,1.25978-.03907,2.33985a5.2774,5.2774,0,0,0,1.19922,3.68066,4.7928,4.7928,0,0,0,3.72071,1.31934,7.36505,7.36505,0,0,0,1.58007-.17969,12.8789,12.8789,0,0,0,1.5-.41992v-.96a6.79607,6.79607,0,0,1-.9414.20019A6.1263,6.1263,0,0,1,666.55653,929.534Zm14.16016-9.16016a11.55843,11.55843,0,0,0-2.2793-.83984,20.77368,20.77368,0,0,1-2.28125-.7207,4.877,4.877,0,0,1-1.73828-1.09961,2.67575,2.67575,0,0,1-.70117-1.98047,3.36922,3.36922,0,0,1,.32031-1.51953,3.18213,3.18213,0,0,1,.80078-1.04,3.29151,3.29151,0,0,1,1.08008-.59961,3.74905,3.74905,0,0,1,1.19922-.2002,3.46379,3.46379,0,0,1,2.2793.75977,3.792,3.792,0,0,1,1.24023,1.71973h.48047c.02539-.15918.06641-.35938.11914-.59961a6.91656,6.91656,0,0,1,.2207-.75977c.09375-.2666.19336-.5332.30078-.7998a5.59346,5.59346,0,0,1,.31836-.68067q-.91992-.31933-1.93945-.71972a6.87246,6.87246,0,0,0-2.5-.4004,8.155,8.155,0,0,0-2.83984.46,6.02013,6.02013,0,0,0-2.08008,1.26074,5.29989,5.29989,0,0,0-1.2793,1.89941,6.432,6.432,0,0,0-.43945,2.41992,4.40421,4.40421,0,0,0,.69922,2.64063,5.36471,5.36471,0,0,0,1.74023,1.54,9.54654,9.54654,0,0,0,2.2793.89941,18.51481,18.51481,0,0,1,2.28125.74024,5.52345,5.52345,0,0,1,1.73828,1.08007,2.48474,2.48474,0,0,1,.70117,1.89942,3.63124,3.63124,0,0,1-.32031,1.56055,3.13912,3.13912,0,0,1-.85938,1.12011,4.021,4.021,0,0,1-1.24023.67969,4.47587,4.47587,0,0,1-1.46094.24023,4.41824,4.41824,0,0,1-1.58008-.28027,5.61266,5.61266,0,0,1-1.32031-.70019,6.02563,6.02563,0,0,1-1-.89942,4.32271,4.32271,0,0,1-.61914-.87988h-.48047a5.59621,5.59621,0,0,1-.25976,1.5,10.48144,10.48144,0,0,1-.5,1.41992,11.9983,11.9983,0,0,0,2.08007.89941,9.69835,9.69835,0,0,0,3.08008.41993,7.62878,7.62878,0,0,0,3-.55957,7.41091,7.41091,0,0,0,2.25977-1.46,6.35719,6.35719,0,0,0,1.43945-2.02051,5.52673,5.52673,0,0,0,.5-2.2793,4.40416,4.40416,0,0,0-.69922-2.64062A4.77,4.77,0,0,0,680.71669,920.37379ZM319.18641,858.85231v-1.49512h-2.957v1.9375c0,.16992-.64648.57813-1.32617.57813h-.30566V847.02223l1.80176.918h2.48144l1.02051-1.08789,2.209,1.7334a2.41035,2.41035,0,0,1-1.292.54394V858.241c-.0332.2041-.84961.61133-1.39355.61133Zm0-2.51563v-7.41113h-2.957v7.41113Zm2.54981-16.48828c-.33984,1.19043-.84961,2.68555-1.291,4.01172h3.19532l1.01953-1.22363,2.3125,1.87012a2.60666,2.60666,0,0,1-1.39453.50976v.98535h6.01757l1.12207-1.18945,2.21,1.90332a1.76007,1.76007,0,0,1-1.292.47656,29.04822,29.04822,0,0,1-2.88964,9.58692,13.34909,13.34909,0,0,0,4.45312,4.14746l-.06738.33984a2.01418,2.01418,0,0,0-1.76856,1.32617,13.72524,13.72524,0,0,1-3.60351-4.18164,16.50279,16.50279,0,0,1-4.69141,4.48731l-.374-.47559a16.40029,16.40029,0,0,0,4.38574-5.33789,30.792,30.792,0,0,1-2.41406-10.09668h-1.12207c-.16993,9.48535-.67969,14.21-1.86914,15.63867a3.98847,3.98847,0,0,1-2.99219,1.292,1.50732,1.50732,0,0,0-.47559-1.32618,7.15372,7.15372,0,0,0-2.41406-.67968v-.64649c1.12207.10254,2.88965.27246,3.50195.27246.64551,0,.84961-.06836,1.15528-.374.918-.95215,1.32617-6.22168,1.53027-16.31836h-3.876c-.16992.50977-.33984.95117-.47558,1.32519a2.52433,2.52433,0,0,1-1.9375-.0332,45.07829,45.07829,0,0,0,2.21-6.29h-6.01758l-.27246-.98535h16.998l1.46191-1.83594s1.666,1.3252,2.71973,2.31153c-.06739.33984-.44141.50976-.918.50976Zm5.67773,7.13965a23.959,23.959,0,0,0,2.44825,8.3291,30.69808,30.69808,0,0,0,1.9375-8.3291Zm7.58106,18.56152c-1.08789-.98535-2.71973-2.24316-2.71973-2.24316l-1.46191,1.76758H312.96571l.27149.98633H334.077Q334.84315,866.06032,334.995,865.54957Zm-24.5791-16.6914v-3.67188h3.94336c.47558,0,.8164-.16992.918-.54394-.918-.918-2.41407-2.27832-2.41407-2.27832L311.538,844.2h-1.12207v-6.56153c.81543-.13574,1.08789-.4414,1.18945-.917l-2.957-.34082V844.2h-4.624l.27246.98632h3.90918a43.78048,43.78048,0,0,1-4.31739,13.9043l.50977.47656a30.81752,30.81752,0,0,0,4.25-8.36328v16.0459h.33984c.67969,0,1.42774-.44141,1.42774-.74805v-16.8623a12.2774,12.2774,0,0,1,2.21,4.624C314.32509,855.75856,315.92274,851.95192,310.41591,848.85817Zm47.93847-2.00586c2.54981,1.25781,6.11914,3.73926,7.4795,5.60937,2.51562.918,2.7539-4.08007-7.17383-5.98339Zm.33985-2.37988.44238.47558c2.07324-1.42773,4.92871-3.36523,6.39063-4.623.57812.16992.95214.13574,1.15625-.13672l-2.85547-1.76758A68.77518,68.77518,0,0,1,358.69423,844.47243Zm-5.50782-6.96973c-.47558.74805-1.15527,1.73437-1.73339,2.5498h4.01172l1.05371-1.18945,2.51562,1.90332a2.93185,2.93185,0,0,1-1.42773.67969v10.8457a2.42213,2.42213,0,0,1-1.59766.67969h-.27246v-1.39356h-7.27441v1.05372c0,.2041-.71485.61132-1.4961.61132h-.30664V839.16872l1.93848.88378h1.76758c.27246-1.15527.6455-2.78808.84961-3.90918l3.19628.64551C354.27431,837.23122,353.86708,837.5027,353.18641,837.5027Zm2.54981,8.7373h-7.27441v4.35157h7.27441Zm-7.27441-5.167v4.14746h7.27441V841.073Zm-9.92774,12a1.18087,1.18087,0,0,0,.47656-.95117c3.09375-2.14258,5.47266-3.97852,7.07129-5.168l-.2041-.47558c-3.74023,1.90332-7.47949,3.70507-9.07715,4.31738Zm29.47559,11.32129c-4.96387-1.15625-10.6416-3.94336-13.8711-7.30957h12.54493c.47558,0,.8164-.16992.88378-.54394-1.12207-1.01954-2.92382-2.41309-2.92382-2.41309l-1.63184,2.00488h-9.99512v-1.9375c.81641-.13574,1.15625-.4414,1.22461-.918l-3.09375-.33984v3.19531h-14.5166l.30566.95215h11.627a32.20076,32.20076,0,0,1-12.27246,8.73731l.27148.57812c6.05176-1.93848,11.28711-5.09961,14.585-9.14551v9.99512h.33985c.71386,0,1.52929-.4082,1.52929-.67969v-9.48535h.23828c2.958,4.25,7.95508,7.54785,12.98633,9.24707a2.01914,2.01914,0,0,1,1.73438-1.56348Zm-29.74707-25.59961-.33985.30567c1.80176,1.292,4.18164,3.63769,4.92871,5.43945C345.12977,845.8318,346.18349,841.17457,338.26259,838.79469Zm40.66308,25.93945,1.22364,2.48145a1.38877,1.38877,0,0,0,.64648-.88379c5.33691-2.04,9.417-3.77344,12.44238-5.09961l-.16992-.50976c-2.51562.78222-5.03125,1.53027-7.24121,2.17578V849.8777a25.675,25.675,0,0,0,4.25-5.40527c.67969,7.81933,2.71973,16.55566,9.99414,21.92773a1.93127,1.93127,0,0,1,1.93848-1.42773l.10156-.374a23.19251,23.19251,0,0,1-9.00879-10.6416,85.20113,85.20113,0,0,0,7.13867-4.89551c.64649.16993.98633.13672,1.15625-.10156l-2.24414-1.9375a84.41013,84.41013,0,0,1-6.28906,6.32324,36.86094,36.86094,0,0,1-2.17578-9.51953h10.19922c.47558,0,.78222-.16992.84961-.54394-1.01954-.98536-2.75391-2.31153-2.75391-2.31153l-1.49512,1.87012h-6.834v-4.99805c.78222-.13574,1.05469-.4414,1.12207-.84961l-2.92383-.30566v6.15332H378.65419l.27148.98535h8.94141a28.64269,28.64269,0,0,1-10.47168,11.32129l.34082.50977a31.02063,31.02063,0,0,0,6.28906-4.14746V863.408C381.81532,864.02028,380.01356,864.49586,378.92567,864.73414Zm-.95215-19.07226-1.22363-.44141a55.68267,55.68267,0,0,0,3.19531-7.24121c.748.03321,1.15625-.27246,1.292-.68066l-3.09375-.98535a55.51233,55.51233,0,0,1-7.78516,16.92968l.50977.374a33.55748,33.55748,0,0,0,4.31835-5.67676v19.30957h.30567a2.11009,2.11009,0,0,0,1.49609-.64551v-20.2959C377.5995,846.20582,377.872,845.96754,377.97352,845.66188Zm39.30372,21.17969.30566.51074a26.11926,26.11926,0,0,0,8.499-4.89551c.54395.16992.95215.13574,1.12207-.2041l-2.5498-1.42773A24.31065,24.31065,0,0,1,417.27724,866.84157ZM428.4286,839.6111a31.1735,31.1735,0,0,1-1.87011,3.84082h4.8955l1.05371-1.15528,2.31153,1.83594a2.71778,2.71778,0,0,1-1.292.54395v15.29785a2.1364,2.1364,0,0,1-1.5293.68066h-.23828v-1.15625h-8.70313v.88379c0,.2041-.71387.61231-1.49609.61231H421.289V842.46657l1.9375.98535H425.538c.23828-1.08789.47656-2.583.64648-3.84082h-6.459l-.27246-.98633h12.13672l1.53027-1.87012s1.69922,1.32617,2.71973,2.34571c-.06836.33984-.374.51074-.85059.51074Zm3.33106,14.7539h-8.70313v4.14747h8.70313Zm0-5.03125h-8.70313v4.0459h8.70313Zm-8.70313-4.8955v3.90918h8.70313v-3.90918Zm10.67481,22.54c2.24414,1.22363,3.19629-3.57032-5.06543-6.08594l-.30567.30566C430.33192,862.59254,432.95009,865.03981,433.73134,866.97829Zm-22.33594-9.99512a25.72138,25.72138,0,0,1-6.833,8.15918l-.4414-.54395a27.98364,27.98364,0,0,0,6.69726-11.28711h-2.85644v1.15625c0,.16993-.74707.54395-1.42774.54395h-.27148V844.81227l1.86914.918h3.26367V842.364h-6.2207l-.27246-.98535h6.49316v-5.09961l2.92383.33984c-.10157.47559-.33985.81641-1.18946.95215v3.80762h3.05957l1.46192-1.9043s1.63183,1.36035,2.71973,2.3457c-.10157.374-.44239.54395-.918.54395h-6.32325v3.36621h3.19532l.98632-1.12207,2.31153,1.80176a3.63279,3.63279,0,0,1-1.25781.57812v6.86719c-.03418.2041-.95215.64551-1.53028.64551h-.2373v-1.18946h-3.46778v2.10743c7.44532,2.68652,6.35743,6.73144,4.28321,5.50781a19.10784,19.10784,0,0,0-4.28321-4.79395v10.36914c0,.33985-.748.74805-1.39355.74805h-.34082Zm1.73437-4.69141h3.46778v-5.57617h-3.46778Zm-1.73437,0v-5.57617h-3.43359v5.57617Zm37.06055.06738a68.93055,68.93055,0,0,0,5.98339-4.11328H439.00477l-.30664-.98632h12.44336v-5.06543h-8.56738l-.27148-.98536h8.83886v-4.96386l2.957.30566c-.06738.44238-.373.71387-1.12109.85059v3.80761h4.2832l1.4961-1.87011s1.7334,1.32617,2.78711,2.3457c-.10157.33984-.40723.50977-.88379.50977h-7.68262v5.06543h2.71973a49.21148,49.21148,0,0,0,9.58691-9.92676l2.584,1.9375c-.30665.30664-.64649.34082-1.42872.10254a49.16217,49.16217,0,0,1-8.02246,7.88672h6.69727l1.56348-1.9375s1.73437,1.36035,2.85546,2.37988c-.10156.374-.40722.54394-.88378.54394H457.12489a68.9639,68.9639,0,0,1-6.66308,4.41993h11.32031l1.12207-1.25879,2.51562,1.97265a2.79864,2.79864,0,0,1-1.46191.64551v12.23926c-.03418.2373-.98535.71387-1.56348.71387H462.122v-1.83594H448.86317v1.49512c0,.17089-.748.6123-1.49511.6123h-.34082V854.53493a69.33867,69.33867,0,0,1-8.60059,3.63769l-.27246-.57812a69.34984,69.34984,0,0,0,8.873-4.38477v-1.53027Zm.40722,5.84766H462.122v-4.52148H448.86317Zm0,5.94922H462.122v-4.96289H448.86317Zm32.708-27.26465c-5.03125,5.23535-7.34277,10.87891-7.34277,17.60938,0,6.76562,2.31152,12.40918,7.34277,17.64453l.68066-.54395c-4.4541-6.4248-5.81347-10.8789-5.81347-17.10058,0-6.18653,1.32519-10.64063,5.81347-17.06543Zm25.80469,23.89942c3.73926-1.73438,6.3916-4.624,6.3916-9.00977,0-4.14746-3.02539-7.9209-9.21289-7.9209-4.96387,0-10.2334,2.92383-13.25879,4.55567-1.9375,1.01953-2.48145,1.12207-3.19531,1.12207a3.45139,3.45139,0,0,1-2.27832-1.32618l-.50977.33985a4.93176,4.93176,0,0,0,.61231,1.76758,4.381,4.381,0,0,0,2.78711,1.73437c.918,0,1.87011-.95215,4.55566-2.5498,2.65137-1.63184,7.17285-4.35157,11.25293-4.35157,4.4873,0,7.27539,2.34571,7.27539,6.25489,0,3.70605-1.80176,6.22168-5.81348,8.05761-3.43359,1.56348-7.07129,2.04-11.55859,2.27832l.06738.95118C499.86317,862.93239,504.5204,862.08278,507.37587,860.79079Zm20.09472-10.0293a2.71748,2.71748,0,0,0-.8496,1.70019,3.12426,3.12426,0,0,0,1.32617,2.209c4.18066,3.502,6.59472,5.88183,8.22656,8.39746a25.50527,25.50527,0,0,1,1.63184,2.92383,1.14106,1.14106,0,0,0,1.0205.748c.64551,0,1.05371-.44238,1.05371-1.292a7.11348,7.11348,0,0,0-1.70019-3.46777c-2.41406-3.09375-5.20117-5.26953-8.77051-8.19336-.74805-.61133-1.12207-1.01953-1.12207-1.49512,0-.374.2041-.71387,1.18945-1.73437,1.39356-1.42774,6.01758-5.7793,8.26172-7.64942,1.08789-.88379,1.56348-1.15527,1.56348-1.76758,0-.748-1.18945-2.04-2.21-2.61718a7.0746,7.0746,0,0,0-1.90332-.71387l-.44238.64551c1.49609.98535,1.90429,1.59765,1.90429,2.1416,0,.374-.2041.71387-.8164,1.39355C534.202,843.92848,529.17079,848.78981,527.47059,850.76149Zm48.78907,1.42773c0-5.77929-1.73438-10.335-5.84766-10.335-2.21,0-4.65723,2.07422-6.1875,4.82813-.4082.67968-.67969.6455-.54394-.06836a28.68959,28.68959,0,0,1,.8164-3.60352,7.73086,7.73086,0,0,0,.40723-1.90429,5.186,5.186,0,0,0-2.00586-3.0254,4.54066,4.54066,0,0,0-1.46192-.78222l-.47558.47656c1.42773,1.63184,1.90332,2.31152,1.90332,3.97754,0,1.76758-1.665,8.499-1.665,12.27246a10.06034,10.06034,0,0,0,.47559,3.02539,1.03266,1.03266,0,0,0,1.01953.71387c.44238,0,.78222-.373.78222-.98535,0-.98633-.2041-1.9375-.2041-3.2295a13.54713,13.54713,0,0,1,1.83594-6.5957c1.19043-2.24414,3.43359-3.8418,5.09961-3.8418,2.44726,0,4.0459,3.46778,4.0459,8.90723,0,6.1875-2.1084,11.11719-10.19922,14.34668l.4082.81641C573.30165,864.66579,576.25966,859.02223,576.25966,852.18922Zm17.64746-7.30957c-2.34571,0-3.05957-.71386-4.52149-1.97168l-.6123.51075c1.12207,2.10742,2.24414,3.09375,4.72558,3.09375a19.1554,19.1554,0,0,0,2.75391-.20411,42.25037,42.25037,0,0,1-6.56152,12.20411,2.381,2.381,0,0,0-.57813,1.49609c0,.50976.23828,1.08789.81641,1.08789s.918-.44141,1.32519-.98633a60.44389,60.44389,0,0,0,6.56153-14.1084,25.03388,25.03388,0,0,0,5.33789-1.7334c.33984-.16992,1.15527-.6123,1.15527-1.19043a1.03063,1.03063,0,0,0-1.15527-.917c-.64649,0-1.292.84961-4.75977,1.9375,1.292-4.6914,1.39356-5.168.84961-5.47363a5.02945,5.02945,0,0,0-2.31152-.50977,7.23375,7.23375,0,0,0-1.87012.33985v.57812a14.9419,14.9419,0,0,1,1.666.44141c.57812.2041.68066.44238.64648,1.15625a28.06969,28.06969,0,0,1-.64648,3.90918A14.254,14.254,0,0,1,593.90712,844.87965Zm21.31543,18.86817c0,.54394-.2041.918-.71387.918-.54394,0-.95215-.50977-1.5293-1.05372a13.23067,13.23067,0,0,0-5.168-3.22949c.03418.50977.06836.95215.06836,1.32617,0,2.75293-2.04,4.41895-5.40527,4.41895-3.46777,0-5.30371-1.69922-5.30371-3.56934,0-2.5498,2.75391-4.2832,7.13867-4.2832a13.77069,13.77069,0,0,1,1.7002.10156c-.13575-1.63183-.33985-3.26367-.33985-4.6914a5.34864,5.34864,0,0,1,1.666-4.14746,11.81417,11.81417,0,0,1,3.73926-2.04c.8164-.33985.71386-.84961.03418-1.32618a6.60411,6.60411,0,0,0-3.97754-.98535v-.88379a9.8294,9.8294,0,0,1,4.623.50977c1.97266.78223,2.958,2.10742,2.958,3.33105,0,.68067-.30566,1.0879-.88379,1.0879-.67968,0-1.15625-.47559-2.5498-.33985a5.80056,5.80056,0,0,0-3.26367,1.36035,3.78437,3.78437,0,0,0-.98633,3.05957c.03418.98633.374,3.26368.6123,5.33789a15.677,15.677,0,0,1,5.50782,2.51563C614.6786,862.18434,615.22255,863.034,615.22255,863.74782Zm-9.11035-3.80762a15.0983,15.0983,0,0,0-2.85645-.27148c-3.16113,0-4.86133,1.292-4.86133,2.5498,0,1.18945,1.19043,2.17578,3.67188,2.17578,3.43359,0,4.0459-1.73437,4.0459-3.77344Zm36.68554,4.52148c0-.543-.57812-.88379-1.49609-.88379-1.12207,0-2.21.34083-4.86133.34083-5.40527,0-8.60156-1.83594-8.60156-4.55567,0-2.82226,3.09375-4.99805,6.93555-4.99805a17.44674,17.44674,0,0,1,8.43066,2.21c.918.50976,1.39453.98632,2.00586.98632.6123,0,1.12207-1.15625,1.08789-2.04-.0332-.54394-.30566-.8164-1.12109-1.59765a33.793,33.793,0,0,1-6.01758-7.51367,27.07369,27.07369,0,0,0,6.6289-3.2295c.44239-.374.67969-.88379.40821-1.22363a1.71994,1.71994,0,0,0-1.87012-.13672,22.518,22.518,0,0,1-5.9834,3.09375,35.35715,35.35715,0,0,1-1.90332-5.167c-.16992-.57812-1.53027-.95215-2.61816-.95215a6.85869,6.85869,0,0,0-2.65137.71387l.10156.71387c1.97168-.06739,2.71973-.23731,3.29785.64648.78223,1.18945,1.4961,2.85547,2.37989,4.48731a25.69378,25.69378,0,0,1-6.3916,1.08789c-2.78711,0-3.67188-.78223-5.71094-2.37989l-.64649.57813c1.97168,2.41308,3.2295,3.53515,6.22168,3.501a29.71561,29.71561,0,0,0,7.377-1.291,68.82976,68.82976,0,0,0,5.37207,7.44531c.2041.23731.13574.27149-.16993.16992a24.75231,24.75231,0,0,0-7.582-1.292c-5.13281,0-9.07715,2.71973-9.07715,6.32324,0,4.69141,5.30372,6.35743,10.81153,6.35743C641.23329,865.85622,642.79774,865.27809,642.79774,864.46168ZM675.02919,844.948l-.33985.88379a9.78246,9.78246,0,0,1,5.26954,3.67188c1.53027,2.3457,1.87011,5.47363,2.07421,6.96972.10157.74707.44141,1.15528.95215,1.15528.71387,0,1.1211-.44141,1.1211-1.59766a12.70084,12.70084,0,0,0-2.957-7.7168A10.555,10.555,0,0,0,675.02919,844.948Zm-10.02832,15.09473a.76657.76657,0,0,1-1.15625.23828c-1.5293-.78223-3.60352-3.12793-3.60352-7.75195,0-3.29785,1.01953-5.47364,1.01953-6.96875,0-1.36035-1.69922-2.78809-2.82129-3.332a8.11566,8.11566,0,0,0-1.87011-.57813l-.374.57813c2.54981,1.76757,2.68653,2.48144,2.68653,4.31738,0,1.32617-.2041,3.53613-.1709,5.916.06836,6.73145,3.67187,9.6543,6.29,10.81055,1.25781.54395,2.03906.03418,2.03906-.74805,0-.6455-.57715-.88379-.20312-2.27734.2373-.98633,1.39355-3.876,2.209-6.01758l-.95117-.4082A53.0593,53.0593,0,0,1,665.00087,860.04274Zm23.08691-22.60742c4.45313,6.4248,5.81348,10.8789,5.81348,17.06543,0,6.22168-1.32617,10.67578-5.81348,17.10058l.64551.54395c5.06543-5.23535,7.37793-10.87891,7.37793-17.64453,0-6.73047-2.3125-12.374-7.37793-17.60938Z" />
  <path
    d="M725.92762,453.64415c-4.18522-2.07129-3.458-7.16249-4.88148-10.93692-1.83436-4.38379-8.30632-1.59355-6.641,2.83283,5.46412,11.364.31595,8.92381-.47976,18.99737A17.1108,17.1108,0,0,0,716.96,475.3801L730.57429,487.447l4.95817-17.55678A18.30312,18.30312,0,0,0,725.92762,453.64415Z"
    style="fill:#9381ee" />
  <path
    d="M735.53245,469.89018c5.73028-4.79249,12.36289,2.45535,7.29912,7.72612a5.25392,5.25392,0,0,1,1.25526,9.929c-2.36865,1.10235-4.40778.22264-6.35606-1.11723-1.62236-1.27834.7799,7.351-4.81513,8.1268-3.54065,1.08645-6.1684-.324-8.36915-4.56052-1.02285,2.88215-3.34511,5.51855-6.64664,4.78714a5.17352,5.17352,0,0,1-2.84343-8.91509c-5.45019-1.20765-6.29118-8.56286-.11939-10.25552,4.19147-1.14954,5.8177,1.49659,6.41988.13507-1.74269-5.30421,3.53143-11.83557,8.3604-6.78827C732.42011,472.34132,732.21905,473.72117,735.53245,469.89018Z"
    style="fill:#6e61b2" />
  <path
    d="M734.26635,476.20921a7.79661,7.79661,0,0,0-1.77407-1.50516,6.61982,6.61982,0,0,0-5.5269-1.19729l-.83311.24614a3.73085,3.73085,0,0,0-.93373.39033c-2.40739,1.49179-3.4251,3.81525-3.851,6.46964a1.8746,1.8746,0,0,0,1.26274,2.13942,3.80778,3.80778,0,0,1,.96332.63733l1.52462.82158c.43536-.26778.89377-.27713.93009.36667l1.30522.66285a1.4693,1.4693,0,0,1,1.80052-.472l1.15342-.38875c.31438-.45457,1.10287-.4778,1.53789-.64083l1.26516-1.21456c-.06559-.33464.34313-.58025.5566-.65829l.51342-1.72664c-.10489-.3035.17775-.627.32482-.8563C735.30131,478.01165,735.27,477.48155,734.26635,476.20921Z"
    style="fill:#5649a8" />
  <path
    d="M734.756,480.34232a1.08568,1.08568,0,0,0-1.84427.6323c-.02978.1653-.0834.27157-.25223.30169-1.16382.16069-3.21577.57923-3.65311-.9062-.67205-2.29021-1.359-4.57606-2.041-6.86335l-.83311.24614c.66672,2.244,1.30693,4.49638,2.01656,6.72675.50078,1.57233-1.29557,2.39392-2.46906,2.86593a.43908.43908,0,0,1-.52052-.107c-2.04278-1.475-2.78164,2.23167-.28353,1.448a.51881.51881,0,0,0,.24915-.16228.75385.75385,0,0,0,.16442-.26948c.24435-.73967,1.93537-.53962,3.12286-2.07163a2.20061,2.20061,0,0,1-1.78429,2.11614,1.116,1.116,0,0,0-1.099.677c-.44362,1.106,1.26471,1.81843,1.96022.72606a1.108,1.108,0,0,0,.14429-.65506c-.03506-.72648,1.00344-1.41031,1.22645-2.148,1.11443,1.41367-.22157,1.52053.15483,2.58682a.95935.95935,0,1,0,1.19871-1.29022c-.40849-.14706-.4573-.34966-.78272-1.70039.76162.616,1.6621.67513,2.32307,1.24481,1.04792,1.48543,2.74066-.00836,1.97443-.945a1.05035,1.05035,0,0,0-1.22081-.29622c-.46835.20344-.55363.61154-.91138.50452a6.7568,6.7568,0,0,1-2.24384-1.27944c2.03085.64671,3.44521-.29905,4.13363.1343C734.4388,482.3246,735.41722,481.0564,734.756,480.34232Z"
    style="fill:#efecfc" />
  <path
    d="M361.67283,172.99391c-2.46721-6.5492-.04864-14.4199-4.3601-20.36063l.31339-.16875,36.83318,18.60736c3.31146,1.17541,7.96837,4.29335,6.41895,8.37321a4.59805,4.59805,0,0,1-3.87789,2.94365c-1.501-.07774.55858,3.235-3.53425,3.84372-3.644.45391-3.69841-2.524-6.3295-3.56974,2.71454,4.84946.35672,11.49526-5.59045,11.74824-2.81823.12293-1.932-2.13-2.13145-4.0137C378.88812,182.14026,367.11927,187.10016,361.67283,172.99391Z"
    style="fill:#6e61b2" />
  <path
    d="M387.34472,173.18658a13.0572,13.0572,0,0,1,6.714,2.14595.86207.86207,0,0,0,.96638.18412,1.22319,1.22319,0,0,1,1.61264.65676,1.28728,1.28728,0,0,1-.59311,1.5838,1.44131,1.44131,0,0,1-1.77518-.51844,6.08507,6.08507,0,0,0-3.96182-2.32917l-2.5762-.361-.61452-1.27269C387.19281,173.24457,387.271,173.1816,387.34472,173.18658Z"
    style="fill:#efecfc" />
  <path
    d="M342.43593,151.2424c-.097-3.22219,1.87187-5.34113,5.05522-6.39423,9.65545-3.13318,18.119,4.979,23.23523,12.26112a9.93553,9.93553,0,0,0,8.79718,4.57807c6.09033-.12971,10.42631-4.34279,15.7,1.313a4.52114,4.52114,0,0,1-.62083,6.84358c-3.35085,1.84861-7.70849.88959-11.31068,1.54867.9098,1.38833,2.45208,1.46826,3.825,1.88344a13.74229,13.74229,0,0,1,2.43663,1.20472c2.88746,1.79243,5.80949,7.62708,1.64646,9.53277-2.01218.52444-1.7206-3.05748-2.6695-4.17919-4.79953-9.06344-16.20961-2.54981-21.86907-11.20553-3.99515-4.70109-5.0371-11.816-9.34879-15.9955a6.31691,6.31691,0,0,0-9.50813,1.204C345.69677,156.17665,342.36426,154.01806,342.43593,151.2424Z"
    style="fill:#9381ee" />
  <path
    d="M420.28536,283.95241c-2.62561-5.26947-1.27568-12.06329-5.39256-16.66561l.24781-.16806L447.55848,279.536c2.8719.70005,7.03612,2.9105,6.08888,6.45747a3.868,3.868,0,0,1-2.99315,2.79554c-1.2628.0635.74451,2.65942-2.62849,3.51935-3.01069.69195-3.31122-1.79548-5.60264-2.44529,2.687,3.82583,1.283,9.58938-3.67227,10.31043-2.348.34424-1.79924-1.6171-2.12748-3.17637C435.47549,290.13226,426.05137,295.29094,420.28536,283.95241Z"
    style="fill:#6e61b2" />
  <path
    d="M441.78567,281.915a10.98425,10.98425,0,0,1,5.80243,1.22086.7252.7252,0,0,0,.8245.07132,1.029,1.029,0,0,1,1.4058.41151,1.08289,1.08289,0,0,1-.36071,1.37622,1.21247,1.21247,0,0,1-1.53-.28183,5.119,5.119,0,0,0-3.515-1.6099l-2.18684-.08146-.62327-1.01243C441.66351,281.97657,441.72358,281.91717,441.78567,281.915Z"
    style="fill:#efecfc" />
  <path
    d="M402.32386,267.39692c-.35717-2.68821,1.10907-4.63009,3.6829-5.784,7.81194-3.449,15.5895,2.615,20.49475,8.27092a8.35807,8.35807,0,0,0,7.7541,3.07779c5.08565-.63014,8.35345-4.52726,13.25116-.24583a3.80333,3.80333,0,0,1,.06656,5.7803c-2.64588,1.834-6.37475,1.40464-9.33283,2.26471.88027,1.08391,2.17779,1.01872,3.36225,1.24859a11.56044,11.56044,0,0,1,2.14231.7995c2.56991,1.25273,5.51495,5.88527,2.19427,7.8366-1.639.61121-1.70176-2.41133-2.59192-3.26877-4.79276-7.1738-13.78357-.7456-19.26106-7.50454-3.746-3.592-5.22731-9.457-9.19355-12.58536a5.314,5.314,0,0,0-7.85387,1.82188C405.47532,271.24694,402.5016,269.7259,402.32386,267.39692Z"
    style="fill:#9381ee" />
  <path
    d="M337.28731,299.45032c.4609-6.98332-4.13722-13.81374-1.73485-20.74985l-.34888-.07056-29.85006,28.4937c-2.828,2.08563-6.37994,6.4206-3.71344,9.87541a4.598,4.598,0,0,0,4.56514,1.6919c1.41389-.50989.404,3.25793,4.49744,2.653,3.619-.62289,2.807-3.48847,5.02152-5.25262-1.19076,5.42845,2.99384,11.10429,8.75859,9.62088,2.73267-.7,1.23088-2.599.87523-4.45947C323.46627,313.19805,336.16793,314.53,337.28731,299.45032Z"
    style="fill:#6e61b2" />
  <path
    d="M312.77561,307.08311a13.05725,13.05725,0,0,0-5.80252,4.00162c-.22608.2841-.40261.50841-.87139.45659a1.22317,1.22317,0,0,0-1.35271,1.09639,1.28726,1.28726,0,0,0,1.02711,1.3436,1.4413,1.4413,0,0,0,1.5484-1.01119,6.08508,6.08508,0,0,1,3.11562-3.37846l2.36064-1.09292.21884-1.39624C312.93782,307.09454,312.84468,307.057,312.77561,307.08311Z"
    style="fill:#efecfc" />
  <path
    d="M349.38578,273.05308c-.842-3.11174-3.341-4.56827-6.693-4.65246-10.14918-.197-15.895,10.02189-18.67833,18.47515a9.93554,9.93554,0,0,1-7.09049,6.93355c-5.866,1.64291-11.23783-1.13091-14.6437,5.81165a4.52114,4.52114,0,0,0,2.57971,6.36908c3.74307.79687,7.635-1.38521,11.27347-1.79961-.46785,1.59257-1.92059,2.11654-3.114,2.91218a13.74236,13.74236,0,0,0-1.98228,1.85987c-2.2432,2.55309-3.34669,8.98456,1.19019,9.60041,2.07778-.08193.75949-3.42517,1.34213-4.77394,1.96341-10.0661,14.77254-7.14317,17.6772-17.06859,2.45932-5.658,1.39215-12.76917,4.30573-18.0199a6.3169,6.3169,0,0,1,9.44845-1.60648C347.69682,278.72118,350.25969,275.68855,349.38578,273.05308Z"
    style="fill:#9381ee" />
  <path
    d="M349.57879,169.95268c-2.42413-4.849-4.32808-11.46195-.32937-16.00022,1.78258-1.81817,4.07649-4.27255,2.43567-6.90132-2.09185-3.46724-7.09762-1.49138-9.14707,1.08658-3.48746,3.81337-4.8234,8.89725-5.42842,13.79655-1.16491,9.43306-.805,21.07787-.63552,30.58521l17.23753,10.90513L364.44242,183.788C361.67978,174.57289,353.09918,176.37579,349.57879,169.95268Z"
    style="fill:#9381ee" />
  <path
    d="M358.0564,229.76932a12.75306,12.75306,0,0,1-5.96342-.19941,6.08941,6.08941,0,0,1-4.10336-4.57443,22.51117,22.51117,0,0,1-.64538-3.9865c-.76879.966-1.24649,1.93612-1.95034,2.74576a7.84244,7.84244,0,0,1-11.52969.76621,19.498,19.498,0,0,1-6.258-12.25354c-.37936-2.74267,1.3896-4.26405,4.10966-3.67609.45027.09734.8817.285,1.33306.3735.95937.18824,1.5306-.384,1.397-1.35493a3.41121,3.41121,0,0,0-1.692-2.21288,7.86371,7.86371,0,0,1-3.44494-5.114,10.87184,10.87184,0,0,1,1.00434-6.64546c1.03075-2.08519,3.20182-2.92254,5.84772-2.37987.28743.05893.57514.11658.86274.17485a25.56155,25.56155,0,0,0,3.165,1.35426c1.98036.56123,3.09365.54126,4.08683-1.362.517-.99079,1.05713-1.975,1.66315-2.91273a6.6246,6.6246,0,0,1,6.52368-3.176,8.63546,8.63546,0,0,1,4.809,2.306c1.7682,1.46548,3.2009,1.17161,4.14567-.908a17.22442,17.22442,0,0,1,2.434-3.69005c2.33086-2.08327,4.81576-1.59232,6.71777.27274a14.06377,14.06377,0,0,1,4.48336,9.72835,7.59067,7.59067,0,0,1-2.32812,5.70789c-.59274.60988-1.22,1.1862-1.9158,1.85941a8.88389,8.88389,0,0,0,2.97977.10962c1.04517-.14651,2.08406-.33844,3.12458-.517,3.21353-.55149,5.24252.96126,5.64558,4.21266.54891,4.428-2.72065,10.75461-6.66687,12.95717-2.32941,1.30014-4.62911.95272-6.93532-.034-.23848-.10205-.46653-.22848-.83077-.40849a13.8631,13.8631,0,0,1,1.365,3.9039,6.09889,6.09889,0,0,1-2.92281,6.25135,11.07837,11.07837,0,0,1-3.51163,1.52878A15.201,15.201,0,0,0,358.0564,229.76932Z"
    style="fill:#6e61b2" />
  <path
    d="M371.89748,206.56961a14.40179,14.40179,0,0,1-9.1156-9.54989c-.19989-.55043-.39451-.61088-.93093-.389-3.08456,1.47127-6.40653.15808-8.88542-1.9073l-1.81053.41508c-1.3101,2.77825-3.29474,5.19973-6.41,5.937-.58871.13934-.47444.4989-.39764.907,1.78208,7.88693-6.87988,13.53216-4.2933,14.93676,5.54094,4.17992,8.72212-.56784,11.34448,1.98468,2.57884,2.70675,7.17821,5.10058,10.2468,1.74571,2.23378-2.44222,1.67554-5.84441,4.89564-6.68553C368.54089,213.59336,376.07662,207.91036,371.89748,206.56961Z"
    style="fill:#5649a8" />
  <path
    d="M352.96543,194.72344s2.12572,9.60888,3.23406,14.403a3.054,3.054,0,0,0,.97995,1.95008,1.40485,1.40485,0,0,1,.09935,2.0563,1.53372,1.53372,0,0,1-2.0353.46082,1.40937,1.40937,0,0,1-.78431-1.90554,2.89578,2.89578,0,0,0,.04981-2.08732c-1.09857-4.76335-3.3344-14.45976-3.3344-14.45976C351.54875,194.1872,352.14437,194.04307,352.96543,194.72344Z"
    style="fill:#efecfc" />
  <path
    d="M284.01743,673.33221c1.5417-6.82658,7.89062-12.06954,7.55742-19.40235l.35455.03145,20.52682,35.799c2.11907,2.803,4.29336,7.96837.75535,10.52345a4.59805,4.59805,0,0,1-4.85769.32547c-1.21081-.89051-1.31282,3.009-5.06576,1.26618-3.293-1.62522-1.70048-4.14212-3.32266-6.46263-.40025,5.54308-6.02471,9.79648-11.13064,6.73669-2.42127-1.44742-.44194-2.84155.42754-4.52439C293.3641,690.43956,280.80729,688.10871,284.01743,673.33221Z"
    style="fill:#6e61b2" />
  <path
    d="M305.35135,687.6132a13.05728,13.05728,0,0,1,4.42685,5.485c.13607.33662.24161.60183.7058.6853a1.22319,1.22319,0,0,1,.98556,1.43548,1.28726,1.28726,0,0,1-1.36646.99649,1.44131,1.44131,0,0,1-1.19739-1.40936,6.08506,6.08506,0,0,0-2.02762-4.1243l-1.953-1.71844.18678-1.40089C305.19258,687.57808,305.29256,687.56851,305.35135,687.6132Z"
    style="fill:#efecfc" />
  <path
    d="M279.91549,644.58572c1.69123-2.74439,4.501-3.43108,7.73884-2.55967,9.78707,2.694,12.3935,14.12408,12.661,23.01975a9.93551,9.93551,0,0,0,4.82894,8.662c5.15768,3.24147,11.09616,2.1078,12.3897,9.73183a4.52114,4.52114,0,0,1-4.2826,5.374c-3.81524-.29918-6.92705-3.49689-10.29792-4.92773-.0038,1.65986,1.24027,2.5749,2.15848,3.67675a13.743,13.743,0,0,1,1.37233,2.34633c1.42559,3.08511.65675,9.5651-3.86818,8.86688-1.96892-.66875.24472-3.49982.0692-4.95853.97676-10.20918-12.135-11.04511-12.10069-21.38675-.75085-6.12354,2.2923-12.63864.99021-18.5007a6.31691,6.31691,0,0,0-8.60294-4.22415C279.92484,650.50009,278.329,646.86439,279.91549,644.58572Z"
    style="fill:#9381ee" />
  <path
    d="M270.88608,662.09811c1.27909-5.26817,4.09414-11.54758,10.07773-12.432,2.53511-.23776,5.87145-.63129,6.31541-3.69815.6408-3.99837-4.45767-5.721-7.68709-5.07526-5.12518.66088-9.42743,3.681-13.05233,7.032-6.97935,6.452-14.222,15.57751-20.23026,22.94767l6.12428,19.45631,20.87195-8.069C277.14494,673.43861,269.428,669.2761,270.88608,662.09811Z"
    style="fill:#9381ee" />
  <path
    d="M238.74457,713.253a12.75309,12.75309,0,0,1-4.42553-4.00209,6.08941,6.08941,0,0,1-.18062-6.1425,22.51036,22.51036,0,0,1,2.08069-3.46113c-1.21075.24142-2.20184.67391-3.262.83785a7.84244,7.84244,0,0,1-9.29988-6.85807,19.49808,19.49808,0,0,1,3.13129-13.398c1.48087-2.33948,3.814-2.35937,5.51173-.15434.281.365.48939.7868.77693,1.14582a1.09117,1.09117,0,0,0,1.94159-.1329,3.41122,3.41122,0,0,0,.13638-2.7823,7.86372,7.86372,0,0,1,.67052-6.12949,10.8718,10.8718,0,0,1,5.05712-4.42677c2.13333-.927,4.33194-.16494,6.00229,1.95761q.2722.34584.546.6905a25.56184,25.56184,0,0,0,1.54287,3.07748c1.15009,1.70708,2.01319,2.41054,4.00039,1.59817,1.03445-.42291,2.0823-.82583,3.15052-1.15078a6.62457,6.62457,0,0,1,7.03246,1.786,8.63545,8.63545,0,0,1,2.18393,4.86563c.4043,2.26068,1.68817,2.96116,3.75223,1.98288a17.22408,17.22408,0,0,1,4.241-1.24677c3.125-.08626,4.70575,1.89286,4.95429,4.54508a14.06378,14.06378,0,0,1-2.85639,10.32388,7.59067,7.59067,0,0,1-5.46283,2.85615c-.8464.08311-1.69747.11833-2.66348.18324a8.88368,8.88368,0,0,0,2.20489,2.00738c.89277.56284,1.81008,1.08694,2.72,1.62229,2.81021,1.65338,3.38316,4.11852,1.592,6.86182-2.43937,3.736-9.02062,6.45694-13.45625,5.59147-2.61831-.51088-4.1503-2.26082-5.27453-4.50324-.11625-.23189-.20879-.47566-.37075-.84829a13.86291,13.86291,0,0,1-1.47781,3.8626,6.09888,6.09888,0,0,1-6.26783,2.88729A11.07845,11.07845,0,0,1,243.307,715.6,15.20108,15.20108,0,0,0,238.74457,713.253Z"
    style="fill:#6e61b2" />
  <path
    d="M264.29207,704.47078a14.4018,14.4018,0,0,1-.79646-13.178c.20268-.54941.09308-.72121-.45983-.89806-3.30549-.86768-4.99473-4.01514-5.5545-7.19277l-1.65067-.85182c-2.79408,1.276-5.873,1.844-8.72813.396-.53955-.27364-.68441.07473-.8892.436-3.7306,7.17371-13.99014,5.89307-12.92153,8.63559,1.53318,6.76927,7.02767,5.19708,7.38253,8.83936.22207,3.732,2.18922,8.52936,6.69852,7.94823,3.28255-.42307,5.05258-3.3817,8.05478-1.94526C257.19431,707.6679,266.61813,708.19263,264.29207,704.47078Z"
    style="fill:#5649a8" />
  <path
    d="M257.48119,683.20187s-4.5798,8.71061-6.82833,13.08742a3.05408,3.05408,0,0,0-.51052,2.12191,1.40485,1.40485,0,0,1-1.25162,1.63453,1.53371,1.53371,0,0,1-1.85185-.962,1.40937,1.40937,0,0,1,.63118-1.96159,2.89579,2.89579,0,0,0,1.38556-1.56192c2.2361-4.347,6.78831-13.19552,6.78831-13.19552C256.74545,681.87778,257.29337,682.15223,257.48119,683.20187Z"
    style="fill:#efecfc" />
  <path
    d="M428.83,707.122c-5.20911-4.67379-6.69218-12.773-13.25723-16.05652l.20028-.29425,41.26371-.47257c3.4804-.48392,9.05039.13548,9.55673,4.47017a4.598,4.598,0,0,1-2.08372,4.40014c-1.36776.62313,1.98732,2.613-1.36377,5.04037-3.02424,2.083-4.44559-.53433-7.26248-.24907,4.64483,3.05148,5.617,10.03581.45645,13.00253-2.44408,1.40857-2.69652-.99925-3.74206-2.57874C448.32334,707.3,440.16728,717.12781,428.83,707.122Z"
    style="fill:#6e61b2" />
  <path
    d="M451.69875,695.45567a13.05724,13.05724,0,0,1,6.94711-1.1916.862.862,0,0,0,.94241-.28222,1.22319,1.22319,0,0,1,1.7338-.16081,1.28726,1.28726,0,0,1,.204,1.67887,1.4413,1.4413,0,0,1-1.81425.35849,6.0851,6.0851,0,0,0-4.5895-.24l-2.45244.86756-1.13213-.846C451.59069,695.57718,451.63107,695.48522,451.69875,695.45567Z"
    style="fill:#efecfc" />
  <path
    d="M401.73055,696.691c-1.57186-2.81446-.80179-5.60256,1.53736-8.00488,7.123-7.23235,18.37369-3.93651,26.27135.16612a9.93553,9.93553,0,0,0,9.91711.006c5.34443-2.92335,7.2493-8.66115,14.53676-6.07422a4.52114,4.52114,0,0,1,2.60468,6.35891c-2.121,3.18543-6.42992,4.34376-9.32241,6.58956,1.44746.81242,2.85285.17221,4.26251-.09242a13.74325,13.74325,0,0,1,2.71765-.05453c3.38867.25911,8.67188,4.08912,5.85654,7.69971-1.54369,1.39317-2.93658-1.91968-4.29581-2.47749-8.438-5.82936-15.55928,5.21168-24.57234.14062-5.71277-2.32934-9.918-8.16228-15.67117-9.88285a6.31691,6.31691,0,0,0-7.88186,5.45256C406.89923,699.56581,402.94681,699.187,401.73055,696.691Z"
    style="fill:#9381ee" />
  <path
    d="M416.04824,708.62882c-3.50235-4.138-6.91652-10.11289-4.10479-15.46824,1.30191-2.18823,2.95015-5.11557.73407-7.28161-2.85264-2.874-7.249.22985-8.63045,3.21944-2.48646,4.53009-2.58192,9.7857-2.01087,14.68907,1.0995,9.44091,4.20372,20.67012,6.61729,29.86755l19.3279,6.51821,5.78133-21.61766C428.8987,710.25548,420.98808,714.03691,416.04824,708.62882Z"
    style="fill:#9381ee" />
  <path
    d="M438.43458,764.74256a12.753,12.753,0,0,1-5.84135,1.21686,6.08939,6.08939,0,0,1-5.069-3.474,22.51042,22.51042,0,0,1-1.57-3.7207c-.51848,1.12044-.75314,2.176-1.2455,3.12917a7.84244,7.84244,0,0,1-11.02124,3.47176,19.49805,19.49805,0,0,1-8.97891-10.4255c-1.01735-2.5751.34153-4.47174,3.12348-4.54387.46051-.01194.92407.06829,1.38357.04757a1.09118,1.09118,0,0,0,1.03685-1.64693,3.41116,3.41116,0,0,0-2.16744-1.74985,7.86372,7.86372,0,0,1-4.55686-4.154,10.8718,10.8718,0,0,1-.59611-6.69443c.50826-2.26983,2.41964-3.597,5.11882-3.69558.29321-.01073.58639-.02277.87962-.03419a25.56055,25.56055,0,0,0,3.39554.56715c2.05692.07686,3.13389-.20588,3.64866-2.29007.268-1.085.56-2.169.927-3.22349a6.6246,6.6246,0,0,1,5.58729-4.629,8.63541,8.63541,0,0,1,5.218,1.103c2.06468,1.00563,3.3872.3812,3.81324-1.86288a17.22454,17.22454,0,0,1,1.49207-4.16108c1.77193-2.5755,4.30244-2.68627,6.59163-1.32405a14.0638,14.0638,0,0,1,6.65733,8.39175,7.59073,7.59073,0,0,1-.91188,6.09661c-.43166.73278-.90476,1.44111-1.4216,2.25981a8.88394,8.88394,0,0,0,2.92114-.59834c.98084-.38958,1.94485-.82181,2.91361-1.24145,2.99187-1.296,5.32111-.30612,6.48183,2.75767,1.58075,4.17248-.09949,11.093-3.41271,14.16647-1.95576,1.81425-4.27237,2.02067-6.74655,1.60743-.25585-.04274-.50733-.11164-.90382-.20039a13.86331,13.86331,0,0,1,2.24969,3.47024,6.09889,6.09889,0,0,1-1.36114,6.76531,11.07841,11.07841,0,0,1-3.05034,2.31606A15.20089,15.20089,0,0,0,438.43458,764.74256Z"
    style="fill:#6e61b2" />
  <path
    d="M446.39509,738.92721a14.40182,14.40182,0,0,1-11.11588-7.12263c-.32443-.48753-.52782-.50022-.99653-.15775-2.649,2.15916-6.18732,1.669-9.08442.24863l-1.661.83157c-.61574,3.00931-1.97127,5.83152-4.82376,7.28481-.539.27464-.343.597-.1718.97531,3.59711,7.24157-3.48367,14.77553-.63824,15.52842,6.37242,2.75062,8.34027-2.61489,11.492-.75511,3.14593,2.01991,8.181,3.25785,10.36895-.72767,1.59269-2.9013.24552-6.07489,3.17528-7.65383C444.79518,746.54561,450.77277,739.24135,446.39509,738.92721Z"
    style="fill:#5649a8" />
  <path
    d="M425.19817,731.8955s4.33832,8.83336,6.54924,13.22929a3.05412,3.05412,0,0,0,1.41342,1.66294,1.40485,1.40485,0,0,1,.58294,1.97444,1.53371,1.53371,0,0,1-1.86853.92918,1.40937,1.40937,0,0,1-1.21281-1.66594,2.89573,2.89573,0,0,0-.44533-2.03986c-2.19415-4.36831-6.66016-13.26066-6.66016-13.26066C423.69485,731.70959,424.23948,731.42866,425.19817,731.8955Z"
    style="fill:#efecfc" />
  <path
    d="M440.05238,266.67638c-3.00108-.908-6.95681-1.3472-9.1531,1.37573-.86226,1.19382-2.03722,2.74129-3.69609,2.06282-2.18091-.85365-1.54371-3.90026-.27441-5.32046,1.833-2.36065,4.60054-3.619,7.33426-4.44261,5.26348-1.58582,11.93677-2.51854,17.373-3.351l7.90085,8.76063-10.14526,8.03591C443.86859,273.12307,444.05786,268.05554,440.05238,266.67638Z"
    style="fill:#9381ee" />
  <path
    d="M474.81049,268.62657a6.40735,6.40735,0,0,1-.52834,2.15119,3.52738,3.52738,0,0,1-3.278,2.277,8.01838,8.01838,0,0,1-2.3588-.39663c.13821.19.23257.30769.314.43366a4.30271,4.30271,0,0,1,.69711,3.95015,8.706,8.706,0,0,1-6.73477,5.06656,2.53574,2.53574,0,0,1-2.95308-2.8066c.00012-.6106.008-1.22158-.0106-1.83169a5.138,5.138,0,0,0-.35367-1.68791c-.31576.46245-.583.87631-.87274,1.2738a4.39021,4.39021,0,0,1-3.02629,1.8849,8.134,8.134,0,0,1-5.98373-1.60513,2.62764,2.62764,0,0,1-.81191-3.8028,9.96174,9.96174,0,0,1,1.86566-1.74808c1.09317-.74178,1.12069-1.58721.11251-2.452a4.99441,4.99441,0,0,1-1.78445-2.516,3.83142,3.83142,0,0,1,1.173-4.02917c.47536-.4371.9836-.84116,1.49788-1.2327.98792-.75214.89051-1.38872.37707-2.46278a14.7837,14.7837,0,0,0-1.08127-1.67188q-.092-.23739-.184-.47472a2.84839,2.84839,0,0,1,.78522-3.566,6.28783,6.28783,0,0,1,3.6901-1.22189,4.54811,4.54811,0,0,1,3.25184,1.46406,1.9729,1.9729,0,0,0,1.42679.7483.63109.63109,0,0,0,.63586-.92876c-.09458-.24864-.24369-.47624-.34317-.7234-.601-1.49312.09344-2.65018,1.694-2.70193a11.277,11.277,0,0,1,7.59663,2.37,4.53579,4.53579,0,0,1,.68985,6.64737c-.39275.48034-.89908.84745-1.37463,1.38009a13.01963,13.01963,0,0,1,2.33556-.02165,3.52191,3.52191,0,0,1,3.00862,1.89213,7.376,7.376,0,0,1,.6964,3.38A8.79148,8.79148,0,0,0,474.81049,268.62657Z"
    style="fill:#6e61b2" />
  <path
    d="M463.10673,275.82107a8.32947,8.32947,0,0,0-6.33465-4.26316c-.33331-.06017-.38679-.1652-.31272-.49267.53729-1.90212-.53591-3.66748-1.9555-4.87875l.0597-1.07265a5.69789,5.69789,0,0,0,2.758-4.23419c.02191-.34921.238-.3192.47818-.3153,4.67007.24519,7.04172-5.24418,8.09516-3.90695,2.9242,2.75016.5286,5.02752,2.23991,6.273,1.795,1.20558,3.609,3.59353,1.99641,5.6706-1.1739,1.512-3.16787,1.52623-3.33269,3.444C466.78262,273.22131,464.27939,278.07237,463.10673,275.82107Z"
    style="fill:#5649a8" />
  <path
    d="M454.50386,266.18643s5.68525.27282,8.52646.43616a1.7664,1.7664,0,0,1,1.2074.36807.81252.81252,0,0,0,1.1819-.1443.887.887,0,0,0,.06381-1.20525.81513.81513,0,0,0-1.1629-.2609,1.67483,1.67483,0,0,1-1.185.23237c-2.8227-.16079-8.5686-.48782-8.5686-.48782C454.05974,265.43125,454.03579,265.78487,454.50386,266.18643Z"
    style="fill:#efecfc" />
  <path
    d="M355.46945,292.20034c-5.33042-3.05086-3.97229-9.67718-5.54207-14.7452-2.0609-5.90056-10.77863-2.75018-8.943,3.1929,6.27315,15.3521-.29225,11.74058-2.135,24.90252-.49507,4.92717.368,10.31785,3.12485,14.47514l16.91738,16.92053,7.90031-22.65644A24.07284,24.07284,0,0,0,355.46945,292.20034Z"
    style="fill:#9381ee" />
  <path
    d="M366.79191,314.2898c7.90266-5.83777,16.036,4.203,8.97044,10.72147,6.87282,1.81151,6.80078,11.04963.86128,13.13464-3.197,1.25955-5.80434-.05693-8.256-1.97033-2.02862-1.8068.44146,9.71244-6.96539,10.28771-4.73439,1.1458-8.07246-.91407-10.626-6.65033-1.57119,3.70276-4.82882,6.97994-9.10527,5.75814-5.696-.99881-7.37865-8.24013-3.02663-11.92939-7.05955-2.01726-7.58088-11.74012.65581-13.47333,5.5938-1.17707,7.51914,2.42572,8.41758.686-1.86762-7.10166,5.57394-15.25844,11.51371-8.24953C362.5117,317.26116,362.13841,319.05675,366.79191,314.2898Z"
    style="fill:#6e61b2" />
  <path
    d="M364.62906,322.48537a10.25412,10.25412,0,0,0-2.20982-2.1166,8.70656,8.70656,0,0,0-7.16107-2.00974l-1.11325.25713a4.90655,4.90655,0,0,0-1.25677.43847c-3.27871,1.76775-4.7989,4.73744-5.5683,8.18849a2.46554,2.46554,0,0,0,1.48827,2.90877,5.00812,5.00812,0,0,1,1.2142.913l1.93649,1.19941c.59277-.31707,1.19533-.293,1.192.55506l1.661.97364a1.93245,1.93245,0,0,1,2.40119-.477l1.54505-.419c.44875-.57187,1.48576-.53989,2.06978-.71946l1.75719-1.49428c-.0596-.44453.49644-.7346.78288-.82014l.81084-2.22613c-.11366-.40676.283-.80911.49428-1.09844C365.845,324.93369,365.84593,324.23527,364.62906,322.48537Z"
    style="fill:#5649a8" />
  <path
    d="M364.94445,327.95029a1.42792,1.42792,0,0,0-2.47134.684c-.0522.21465-.131.34992-.355.37609-1.54064.11875-4.26769.50565-4.72416-1.47913-.70084-3.05993-1.42158-6.11532-2.13574-9.1722l-1.11325.25713c.69751,2.99882,1.35955,6.00659,2.11446,8.99093.53287,2.10389-1.89054,3.04019-3.46855,3.56689a.5775.5775,0,0,1-.67488-.18177c-2.565-2.09829-3.82867,2.70943-.48695,1.87853a.6824.6824,0,0,0,.33995-.19331.99162.99162,0,0,0,.23721-.34076c.37939-.9517,2.58359-.55509,4.26395-2.47229.05314,1.19513-1.43492,2.74468-2.51015,2.63679a1.46777,1.46777,0,0,0-1.49644.80174c-.67,1.41681,1.5163,2.48751,2.51593,1.10851a1.45727,1.45727,0,0,0,.24134-.84856c.01152-.95653,1.42909-1.772,1.78031-2.72287,1.35108,1.94422-.41135,1.97866-.00168,3.40834a1.26177,1.26177,0,1,0,1.67594-1.59888c-.52463-.22542-.57266-.49527-.89287-2.29435.95109.86908,2.12858,1.018,2.95121,1.8183,1.25805,2.03315,3.59871.20615,2.667-1.08422a1.38147,1.38147,0,0,0-1.57926-.48562c-.631.23-.77529.759-1.23648.59015a8.88672,8.88672,0,0,1-2.84443-1.85748c2.61494,1.00993,4.54671-.11965,5.41616.50382C364.37093,330.52757,365.75592,328.94014,364.94445,327.95029Z"
    style="fill:#efecfc" />
  <path
    d="M403.41444,268.37819a1.98459,1.98459,0,0,1-1.695-1.768,8.22533,8.22533,0,0,1-.01773-1.20428l7.83947-7.32108,20.30428-5.99992,14.13466-.43392,1.32931,5.281a2.16382,2.16382,0,0,1-1.83542.97127,9.11155,9.11155,0,0,1-3.18048-.61721,4.3411,4.3411,0,0,0-4.58087,1.1363,13.19432,13.19432,0,0,1-4.239,2.845,10.20938,10.20938,0,0,1-2.37741.81361l-.22868.04162-.31468.077-.127.029a13.19454,13.19454,0,0,1-4.22324.12841l-.23111-.01935q-.8067-.11528-1.61342-.23046l0,0-.127-.01668q-1.67931-.288-3.35863-.576c-.39391-.04946-.78963-.08546-1.18145-.15059a32.44817,32.44817,0,0,0-6.69622-.5553,4.69446,4.69446,0,0,0-4.34528,2.95443,15.4907,15.4907,0,0,0-.7331,1.87939,9.43706,9.43706,0,0,1-.608,1.60951A1.88908,1.88908,0,0,1,403.41444,268.37819Z"
    style="fill:#6e61b2" />
  <path
    d="M444.96835,256.38839c-.84931-2.45406-2.86515-4.41317-5.28349-4.302-3.08682.05609-4.56859,2.87326-6.76759,4.77218-3.14541,2.70955-7.277,3.30781-11.14153,3.19685-1.57938-.07623-3.15749-.22376-4.73181-.42728-4.50089-.63514-10.97286-.32027-12.1872,5.70286-.25993,1.06369-.85784,2.5505-1.95065,2.3145-.73261-.17444-1.04071-.62558-1.10925-1.60706-.01486-.21272.07272-.44759-.09515-.63259a8.8001,8.8001,0,0,1,2.02364-4.51731c1.95963-2.49864,4.60249-3.67973,7.33246-4.7044,1.24837-.46857,2.55612-.70726,3.77267-1.30087,2.55056-1.24457,5.05846-2.589,7.56278-3.94194a24.21316,24.21316,0,0,0,4.2383-2.80061c2.26243-1.98526,1.33676-3.80475.97315-6.44837a2.99173,2.99173,0,0,1,2.08375-3.44447,3.81072,3.81072,0,0,1,3.37712.88315c.13518.10634.22371.33074.44514.2643.01868-2.72955.92887-5.71188,3.45172-4.70135,1.847.80928,3.692,2.89364,3.32805,5.2742a9.42528,9.42528,0,0,1-.51033,1.5652c.08378.01124.12947.03381.14973.01743.13078-.10579.25541-.22092.38315-.33134,1.74935-1.6252,3.88349-1.12173,5.18689.87818,1.73671,2.57129,1.58,6.45357-1.57623,7.78677-.11036.04662-.25643.071-.22835.32042a3.36983,3.36983,0,0,1,2.472,2.77612,4.89206,4.89206,0,0,1-.85793,3.951C445.005,256.90062,445.03934,256.59351,444.96835,256.38839Z"
    style="fill:#9381ee" />
  <path d="M434.63852,247.97769l.11079-.12336C434.76055,247.94911,434.72509,247.99186,434.63852,247.97769Z"
    style="fill:#a170c4" />
  <path
    d="M434.21966,247.41624a14.94423,14.94423,0,0,1,1.89741-1.41763,14.185,14.185,0,0,1,3.12154-1.47214l-4.95774,4.1302Z"
    style="fill:#6e61b2" />
  <path
    d="M433.20772,251.08157c.15777-.64822.31555-1.50859.47332-2.15681q.24438-.28291.506-.56343a19.0507,19.0507,0,0,1,4.17957-3.37058.93663.93663,0,1,1,.92915,1.06238.84961.84961,0,0,1-.42052-.11274A16.74612,16.74612,0,0,0,433.20772,251.08157Z"
    style="fill:#efecfc" />
  <path
    d="M434.34864,244.94058a16.1389,16.1389,0,0,1-1.65043,5.14291,13.0845,13.0845,0,0,1-1.21877,1.516c-.105.082-.23389.15392-.15926.3267.06271.14518.19846.15572.3289.15832a2.59018,2.59018,0,0,0,1.91345-1.19145,6.62487,6.62487,0,0,0,1.0815-4.47648A7.33474,7.33474,0,0,0,434.34864,244.94058Z"
    style="fill:#5649a8" />
  <path
    d="M292.67176,649.8124a3.393,3.393,0,0,0,2.03689-3.65268,11.94948,11.94948,0,0,0-.56251-1.86476l-17.0511-6.97917-37.78078,1.88968-24.458,7.08087.32,8.86351a4.0377,4.0377,0,0,0,3.62639.48985,18.05145,18.05145,0,0,0,5.1514-2.69442,8.44018,8.44018,0,0,1,8.41675-.76112,24.08964,24.08964,0,0,0,8.67159,2.05831,19.84,19.84,0,0,0,4.47842-.05016l.41273-.06127q.28881-.027.57766-.05391l.23216-.02489a26.41645,26.41645,0,0,0,7.30709-2.11757l.38688-.1565q1.32693-.61984,2.65393-1.23956l0,0,.20959-.09531q2.73864-1.36426,5.47727-2.72857c.6513-.29215,1.31233-.56456,1.95232-.87971a64.90343,64.90343,0,0,1,11.21223-4.52654,8.50644,8.50644,0,0,1,8.90781,2.16862,23.579,23.579,0,0,1,2.18276,2.493,14.331,14.331,0,0,0,1.83525,2.14593A3.47852,3.47852,0,0,0,292.67176,649.8124Z"
    style="fill:#6e61b2" />
  <path
    d="M215.17633,655.14985a7.28938,7.28938,0,0,1-3.41682-5.61563,5.70452,5.70452,0,0,1,2.87324-5.63149c-.07465-.39966-.33719-.35707-.54944-.36838-6.07016-.3232-8.25033-6.21744-6.53743-11.13032,1.251-3.79516,4.66367-5.74073,8.46439-4.19641.27347.10007.54393.20908.82033.30032.04281.01414.11007-.04567.24824-.10892a14.16858,14.16858,0,0,1-1.646-2.1312c-1.79636-3.46738.342-7.68956,3.11165-9.94879,3.82976-2.93972,6.85931,1.15514,8.23525,5.34941.41251-.019.45388-.41325.63338-.65117a7.42874,7.42874,0,0,1,5.35776-3.21187,4.83393,4.83393,0,0,1,5.27,4.16334c.67791,4.2715-.014,7.58166,4.84405,9.39932a44.32209,44.32209,0,0,0,8.64858,1.99033c4.96165.71107,9.92522,1.407,14.9128,1.92577,2.37893.2474,4.73957-.1019,7.11151-.06454,5.187.08166,10.3017.452,14.89315,3.2265a13.59856,13.59856,0,0,1,5.69513,5.84884c-.19686.377.069.69078.14825,1.02659.36567,1.54941.05933,2.41326-1.11139,3.08361-1.75824.96266-3.51582-.99978-4.48538-2.49574-5.04838-8.61207-16.30438-5.54884-23.71178-2.1029-2.60013,1.17661-5.23434,2.269-7.90581,3.25235-6.57391,2.28962-13.95518,3.63324-20.68436,1.184-4.70675-1.71943-8.63538-5.24653-13.95763-3.64058-4.2028,1.15451-6.69588,5.27744-6.94438,9.52322C215.47288,654.48038,215.68291,654.93464,215.17633,655.14985Z"
    style="fill:#9381ee" />
  <path d="M229.07077,635.50666l-.25077-.12927C228.84739,635.52954,228.92926,635.576,229.07077,635.50666Z"
    style="fill:#a170c4" />
  <path d="M229.51278,634.41218a26.88786,26.88786,0,0,0-10.03148-1.69968l10.53722,3.644Z" style="fill:#6e61b2" />
  <path
    d="M233.05314,639.50333c-.58978-.912-1.284-2.15077-1.87378-3.06276q-.55844-.30183-1.14528-.5905a33.92709,33.92709,0,0,0-8.82846-2.90049,1.67679,1.67679,0,1,0-.40486,1.74165A29.21786,29.21786,0,0,1,233.05314,639.50333Z"
    style="fill:#efecfc" />
  <path
    d="M228.07266,630.66947c2.11984,3.71815,4.22829,6.2523,5.363,7.01713a21.77155,21.77155,0,0,0,2.83691,1.66707c.22041.06871.47695.10885.434.41591-.03608.258-.26375.34867-.4862.42419a4.81947,4.81947,0,0,1-3.86864-.78621,9.84328,9.84328,0,0,1-4.059-6.30249A10.81343,10.81343,0,0,1,228.07266,630.66947Z"
    style="fill:#5649a8" />
  <path
    d="M413.38187,687.56413a3.00118,3.00118,0,0,0-2.50013-2.72657,10.57,10.57,0,0,0-1.72222-.04655l-10.60426,12.37463-8.92565,32.24752-.86,22.50576,7.53108,2.19751a3.57143,3.57143,0,0,0,1.42031-2.9085,15.96691,15.96691,0,0,0-.829-5.075,7.4656,7.4656,0,0,1,1.70286-7.2787,21.30828,21.30828,0,0,0,4.141-6.70819,17.54849,17.54849,0,0,0,1.204-3.77415l.06341-.36359q.05769-.25.11546-.5l.0437-.20186a23.36637,23.36637,0,0,0,.25519-6.72442l-.02376-.36838q-.15123-1.28659-.30232-2.57321l0,0-.02171-.20249q-.38346-2.679-.767-5.35807c-.06408-.62814-.10887-1.259-.1954-1.884a57.40894,57.40894,0,0,1-.68087-10.67357,7.52417,7.52417,0,0,1,4.29938-6.87582,20.85658,20.85658,0,0,1,2.70055-1.139,12.676,12.676,0,0,0,2.31243-.94382A3.07686,3.07686,0,0,0,413.38187,687.56413Z"
    style="fill:#6e61b2" />
  <path
    d="M396.30068,754.11643a6.44771,6.44771,0,0,1-5.66574,1.30634,5.04584,5.04584,0,0,1-3.92888-3.97939c-.35634-.04852-.39363.18376-.46218.35883-1.96036,5.00674-7.51593,5.19723-11.16431,2.39205-2.83844-2.10634-3.52243-5.51306-1.16825-8.27455.16011-.20177.3269-.39852.48041-.60521.02379-.032-.00772-.10513-.02238-.23874a12.53285,12.53285,0,0,1-2.2474.789c-3.41113.5435-6.36119-2.42673-7.48746-5.38081-1.40266-4.03353,2.87845-5.43785,6.78292-5.42609.09878-.35165-.22069-.49608-.37051-.713a6.571,6.571,0,0,1-1.206-5.39221,4.27576,4.27576,0,0,1,4.962-3.26641c3.77508.61933,6.36186,2.12132,9.23974-1.45188a39.20472,39.20472,0,0,0,4.07755-6.70778c1.97758-3.96808,3.943-7.942,5.76632-11.98534.86966-1.92858,1.23321-4.00782,1.92455-5.989,1.51183-4.33246,3.24593-8.5238,6.853-11.60692a12.02831,12.02831,0,0,1,6.49547-3.15437c.26177.27018.5992.13427.90321.16116,1.40267.12409,2.04274.62166,2.27984,1.79115.31905,1.74412-1.8177,2.67379-3.34352,3.07162-8.6356,1.84249-9.19555,12.14565-8.36331,19.32391.26444,2.51052.44872,5.02623.531,7.54287.09327,6.1567-.83239,12.72806-4.7612,17.69657-2.7533,3.47349-6.80787,5.79067-6.94036,10.70622-.2,3.85,2.568,7.09045,6.06372,8.48046C395.82109,753.68116,396.26094,753.63121,396.30068,754.11643Z"
    style="fill:#9381ee" />
  <path d="M383.67379,736.98469l-.17831.17458C383.63085,737.17861,383.69259,737.12279,383.67379,736.98469Z"
    style="fill:#a170c4" />
  <path d="M382.87782,736.309a23.78283,23.78283,0,0,0-4.21829,7.94976l5.99148-7.83341Z" style="fill:#6e61b2" />
  <path
    d="M388.13757,734.753c-.92983.24144-2.16311.47965-3.09294.72107q-.40879.38491-.81446.79731a30.00953,30.00953,0,0,0-4.8918,6.60556,1.48314,1.48314,0,1,0,1.34969.82454A25.84392,25.84392,0,0,1,388.13757,734.753Z"
    style="fill:#efecfc" />
  <path
    d="M379.33464,736.47681c3.71169-.74532,6.4261-1.81052,7.384-2.55044a19.25685,19.25685,0,0,0,2.18907-1.91809c.119-.166.22411-.37018.47-.24869.2066.10208.21936.31847.22088.52625a4.263,4.263,0,0,1-1.73656,3.02946,8.70669,8.70669,0,0,1-6.42113,1.65443A9.5653,9.5653,0,0,1,379.33464,736.47681Z"
    style="fill:#5649a8" />
  <path
    d="M358.56558,148.13167a3.393,3.393,0,0,0-1.508-3.90088,11.94943,11.94943,0,0,0-1.79382-.75893l-16.26427,8.65577-22.689,30.26823-10.18252,23.33768,7.02225,5.41777a4.03767,4.03767,0,0,0,2.69411-2.47637,18.05137,18.05137,0,0,0,1.21931-5.6842,8.44016,8.44016,0,0,1,4.793-6.96046,24.08976,24.08976,0,0,0,7.12453-5.35484,19.83936,19.83936,0,0,0,2.8232-3.47682l.21663-.35662q.16377-.23938.32766-.47877l.12921-.19449a26.41675,26.41675,0,0,0,3.04053-6.97372l.12684-.39759q.37116-1.41676.74246-2.83349l0,0,.06062-.22213q.70065-2.97831,1.40127-5.95668c.19148-.68766.40435-1.37019.57091-2.06385a64.90254,64.90254,0,0,1,3.683-11.5169,8.50646,8.50646,0,0,1,7.36033-5.466,23.57948,23.57948,0,0,1,3.31244-.08587,14.33131,14.33131,0,0,0,2.82339-.04037A3.47852,3.47852,0,0,0,358.56558,148.13167Z"
    style="fill:#6e61b2" />
  <path
    d="M313.15019,211.1513a7.28937,7.28937,0,0,1-6.5029-.96029,5.70453,5.70453,0,0,1-2.49565-5.8087c-.35512-.198-.49013.03119-.63446.18723-4.12754,4.46259-10.0545,2.373-12.73888-2.08392-2.11981-3.38742-1.43557-7.25569,2.181-9.19233.25172-.1464.5084-.28478.75521-.43908.03823-.02389.0352-.11385.07485-.26055a14.16845,14.16845,0,0,1-2.69111-.0958c-3.815-.834-5.69621-5.17683-5.66413-8.7509.18607-4.82436,5.27174-4.538,9.37719-2.91613.24894-.32947-.02784-.6132-.09614-.9033a7.42873,7.42873,0,0,1,.95316-6.17359,4.83394,4.83394,0,0,1,6.57-1.39321c3.71879,2.20812,5.8228,4.85559,10.32531,2.28032a44.32133,44.32133,0,0,0,7.05754-5.38057c3.71752-3.36207,7.42464-6.7353,11.01082-10.24021,1.71048-1.67176,2.95029-3.71075,4.49473-5.51137,3.37743-3.93765,6.93067-7.63512,11.99878-9.3939a13.59852,13.59852,0,0,1,8.13817-.64314c.16419.39233.57544.38834.88439.542,1.42546.70882,1.89416,1.49647,1.66168,2.82535-.38307,1.96757-3.01569,2.06546-4.78593,1.8553-9.85035-1.62009-14.68691,8.9954-16.76977,16.89513-.75649,2.75187-1.5995,5.47617-2.55027,8.1594-2.43969,6.51971-6.12294,13.05592-12.307,16.66684-4.33026,2.52165-9.55374,3.28965-11.71947,8.40971-1.79761,3.97051-.21942,8.5228,2.88761,11.42707C312.82474,210.4954,313.30837,210.62412,313.15019,211.1513Z"
    style="fill:#9381ee" />
  <path d="M306.91959,187.91147l-.25968.11028C306.79445,188.09791,306.88245,188.06459,306.91959,187.91147Z"
    style="fill:#a170c4" />
  <path d="M306.36017,186.87209a26.88753,26.88753,0,0,0-7.71766,6.63l9.53636-5.7766Z" style="fill:#6e61b2" />
  <path
    d="M312.5386,187.4022c-1.07837-.12912-2.47486-.38673-3.55323-.51586q-.589.23667-1.18606.5036a33.92743,33.92743,0,0,0-7.87258,4.93732,1.67678,1.67678,0,1,0,1.081,1.42437A29.21776,29.21776,0,0,1,312.5386,187.4022Z"
    style="fill:#efecfc" />
  <path
    d="M302.56105,185.58816c4.21458.74539,7.51117.743,8.82457.35889a21.77125,21.77125,0,0,0,3.09513-1.11685c.1937-.12563.38851-.29731.59727-.06807.17541.19263.09965.42568.01559.645a4.81944,4.81944,0,0,1-3.07688,2.47332,9.84323,9.84323,0,0,1-7.44161-.90522A10.81369,10.81369,0,0,1,302.56105,185.58816Z"
    style="fill:#5649a8" />
  <circle cx="414.56271" cy="328.06549" r="6.30715" style="fill:#9381ee;opacity:0.3" />
  <circle cx="361.53901" cy="363.18616" r="6.30715" style="fill:#9381ee;opacity:0.3" />
  <circle cx="480.01698" cy="310.43268" r="10.95139" style="fill:#9381ee;opacity:0.3" />
  <path
    d="M396.4523,312.47219a8.15821,8.15821,0,1,0-10.15652-5.4734A8.1681,8.1681,0,0,0,396.4523,312.47219Zm-4.09809-13.67737a6.11991,6.11991,0,1,1-4.10588,7.61894A6.12714,6.12714,0,0,1,392.35421,298.79482Z"
    style="fill:#9381ee;opacity:0.3" />
  <path
    d="M545.91949,259.838c2.18362,1.44207,4.29745,1.95356,6.06536,1.243s2.93988-2.54265,3.51819-5.09471c5.40061,1.38277,11.095,7.128,14.33295,15.18421,4.37644,10.889,2.60659,21.85347-3.95316,24.48993s-15.42521-4.05355-19.80165-14.94253C542.84326,272.66166,542.978,264.57365,545.91949,259.838Z"
    style="fill:#9381ee;opacity:0.3" />
  <path
    d="M463.34868,169.93836c.3966,2.78992,1.49355,4.85915,3.32862,5.777s4.14879.55448,6.619-.80149c2.74133,5.3409,2.17575,14.03341-2.00678,22.39575-5.65318,11.30271-15.75568,17.7046-22.56467,14.299-6.80893-3.40556-7.74588-15.329-2.09269-26.63167C450.81468,176.61459,457.43087,170.94836,463.34868,169.93836Z"
    style="fill:#9381ee" />
  <path
    d="M289.34868,320.82676c.3067,2.15757,1.155,3.7578,2.57417,4.4676s3.20844.42881,5.11877-.61982c2.12,4.13036,1.6826,10.85267-1.55193,17.31964-4.37186,8.74089-12.18458,13.69177-17.45028,11.05806-5.26565-2.63368-5.99023-11.85458-1.61837-20.59547C279.65557,325.98979,284.77217,321.60784,289.34868,320.82676Z"
    style="fill:#9381ee" />
  <path
    d="M588.78942,166.73809c-1.53911,2.36052-2.07656,4.64-1.30026,6.53931s2.75659,3.14977,5.50843,3.75643c-1.455,5.82436-7.60574,11.99263-16.26067,15.53021-11.69817,4.78146-23.51643,2.94478-26.39689-4.10245-2.88043-7.04716,4.26774-16.63618,15.96591-21.41765C574.96087,163.50636,583.67128,163.6004,588.78942,166.73809Z"
    style="fill:#9381ee" />
  <path
    d="M343.78747,93.54077c2.24158.17769,4.04412-.31563,5.07881-1.5845s1.15523-3.13384.53014-5.29378c4.63684-1.20323,11.3068.753,17.089,5.468,7.81527,6.37295,11.03854,15.35583,7.19934,20.06391s-13.28695,3.35839-21.10221-3.01455C346.80035,104.46483,343.542,98.32492,343.78747,93.54077Z"
    style="fill:#9381ee" />
  <path
    d="M71.46469,163.5728a3.453,3.453,0,0,0,4.558-4.4281c3.39731-.47229,7.97934,1.47061,11.70178,5.30223,5.03132,5.17888,6.58088,11.83424,3.461,14.86521s-9.72767,1.28972-14.759-3.88916C72.70408,171.59136,70.89443,166.95508,71.46469,163.5728Z"
    style="fill:#9381ee;opacity:0.3" />
  <path
    d="M758.86053,582.04157a2.9565,2.9565,0,0,0,2.09432,2.64592,5.69919,5.69919,0,0,0,4.14324-1.12527c1.72581,2.48217,1.38675,7.06028-1.21772,11.8541-3.52025,6.47941-9.835,10.88825-14.10454,9.84742s-4.87685-7.13718-1.35661-13.61659C751.02369,586.85334,755.15672,583.20013,758.86053,582.04157Z"
    style="fill:#9381ee;opacity:0.3" />
  <path
    d="M874.47452,632.19145a2.9565,2.9565,0,0,0,2.39975-2.37239,5.69916,5.69916,0,0,0-1.57376-3.99449c2.27749-1.98813,6.86514-2.1542,11.91613-.0923,6.827,2.7869,11.90308,8.579,11.33772,12.937s-6.558,5.63162-13.385,2.84472C880.11833,639.45207,876.03307,635.74552,874.47452,632.19145Z"
    style="fill:#9381ee;opacity:0.3" />
  <circle cx="369.21237" cy="659.21237" r="6.78622" style="fill:#9381ee;opacity:0.3" />
  <circle cx="474.21434" cy="669.78566" r="11.78322" style="fill:#9381ee;opacity:0.3" />
  <path
    d="M233.913,590.95134c1.32976,2.02121,1.79924,3.97641,1.13945,5.6098s-2.35558,2.714-4.71606,3.24457c1.26974,4.99542,6.57234,10.26953,14.01561,13.2762,10.06047,4.06386,20.20067,2.44522,22.64883-3.61542s-3.72286-14.26809-13.78333-18.332C245.77425,588.12787,238.29618,588.23936,233.913,590.95134Z"
    style="fill:#9381ee;opacity:0.3" />
  <path
    d="M342.11221,731.20357a8.77788,8.77788,0,1,1-10.42629-6.73758A8.78852,8.78852,0,0,1,342.11221,731.20357Zm-15.01969,3.2279a6.58475,6.58475,0,1,0,5.05421-7.82131A6.59252,6.59252,0,0,0,327.09252,734.43147Z"
    style="fill:#9381ee;opacity:0.3" />
  <path
    d="M265.0095,403.89579a8.77788,8.77788,0,1,1-10.42629-6.73758A8.78852,8.78852,0,0,1,265.0095,403.89579Zm-15.0197,3.2279a6.58476,6.58476,0,1,0,5.05422-7.8213A6.59253,6.59253,0,0,0,249.9898,407.12369Z"
    style="fill:#9381ee;opacity:0.3" />
  <circle cx="163.4363" cy="495.66663" r="6.78622" style="fill:#9381ee;opacity:0.3" />
  <path
    d="M828.88949,117.81449a8.77788,8.77788,0,1,1-10.42629-6.73758A8.78854,8.78854,0,0,1,828.88949,117.81449Zm-15.0197,3.2279a6.58475,6.58475,0,1,0,5.05421-7.82131A6.59253,6.59253,0,0,0,813.86979,121.04239Z"
    style="fill:#9381ee;opacity:0.3" />
  <path
    d="M42.77274,355.03249a8.77788,8.77788,0,1,1-10.42629-6.73758A8.78852,8.78852,0,0,1,42.77274,355.03249Zm-15.01969,3.2279a6.58475,6.58475,0,1,0,5.05421-7.8213A6.59252,6.59252,0,0,0,27.75305,358.26039Z"
    style="fill:#9381ee;opacity:0.3" />
</svg>